<?xml version="1.0" encoding="UTF-8" standalone="no"?>
<!DOCTYPE svg PUBLIC "-//W3C//DTD SVG 1.1//EN" "http://www.w3.org/Graphics/SVG/1.1/DTD/svg11.dtd">
<svg width="56px" height="106px" version="1.1" xmlns="http://www.w3.org/2000/svg" xmlns:xlink="http://www.w3.org/1999/xlink" xml:space="preserve" xmlns:serif="http://www.serif.com/" style="fill-rule:evenodd;clip-rule:evenodd;stroke-linejoin:round;stroke-miterlimit:2;">
    <g transform="matrix(1,0,0,1,-436.234,-130.483)">
        <g transform="matrix(1.34374,0,0,1.67222,-1425.89,9.14673)">
            <g transform="matrix(89.3028,0,0,71.7609,1379.16,123.223)">
                <path d="M0.536,-0.469C0.537,-0.442 0.532,-0.424 0.519,-0.417C0.508,-0.412 0.496,-0.408 0.485,-0.403C0.481,-0.402 0.477,-0.399 0.472,-0.394C0.469,-0.375 0.453,-0.351 0.424,-0.322L0.417,-0.322L0.414,-0.32L0.407,-0.32C0.407,-0.323 0.406,-0.323 0.405,-0.322L0.405,-0.32L0.401,-0.323L0.402,-0.324C0.399,-0.324 0.396,-0.326 0.393,-0.331C0.39,-0.336 0.388,-0.338 0.385,-0.339C0.384,-0.344 0.383,-0.348 0.382,-0.351L0.36,-0.325C0.357,-0.322 0.351,-0.32 0.344,-0.317C0.341,-0.316 0.338,-0.315 0.334,-0.315L0.334,-0.313L0.326,-0.313C0.323,-0.311 0.32,-0.304 0.318,-0.292C0.316,-0.28 0.316,-0.272 0.317,-0.267L0.314,-0.26C0.373,-0.255 0.407,-0.238 0.417,-0.207C0.423,-0.209 0.429,-0.21 0.434,-0.21C0.448,-0.21 0.457,-0.199 0.462,-0.178C0.463,-0.161 0.465,-0.145 0.467,-0.128C0.474,-0.128 0.48,-0.125 0.484,-0.118C0.488,-0.111 0.492,-0.104 0.495,-0.097C0.498,-0.056 0.495,-0.025 0.486,-0.005C0.486,-0.003 0.485,0 0.484,0.005C0.482,0.009 0.481,0.012 0.482,0.015C0.469,0.057 0.459,0.087 0.452,0.104C0.452,0.106 0.451,0.113 0.449,0.124C0.452,0.123 0.457,0.123 0.464,0.124C0.478,0.121 0.488,0.12 0.494,0.121L0.498,0.128L0.497,0.129C0.496,0.131 0.496,0.134 0.497,0.138L0.494,0.139C0.496,0.142 0.499,0.145 0.504,0.148L0.504,0.15L0.5,0.154L0.501,0.154C0.496,0.158 0.486,0.16 0.473,0.16C0.446,0.16 0.427,0.155 0.418,0.145C0.421,0.126 0.427,0.098 0.435,0.062C0.43,0.06 0.407,0.061 0.367,0.065C0.363,0.069 0.358,0.081 0.353,0.1C0.348,0.119 0.345,0.132 0.344,0.139L0.36,0.14C0.359,0.147 0.361,0.154 0.366,0.159C0.367,0.162 0.366,0.163 0.362,0.164L0.36,0.169C0.355,0.168 0.352,0.168 0.351,0.171C0.348,0.171 0.342,0.171 0.335,0.172C0.335,0.171 0.33,0.167 0.321,0.159C0.314,0.153 0.312,0.147 0.313,0.142C0.316,0.124 0.323,0.098 0.334,0.065C0.33,0.065 0.324,0.065 0.315,0.064C0.31,0.063 0.303,0.061 0.294,0.06C0.29,0.066 0.286,0.075 0.282,0.087C0.278,0.102 0.275,0.112 0.274,0.116C0.273,0.123 0.268,0.14 0.257,0.166L0.249,0.167C0.242,0.17 0.225,0.171 0.199,0.172C0.199,0.163 0.206,0.155 0.219,0.147C0.232,0.139 0.238,0.13 0.238,0.121C0.241,0.106 0.249,0.084 0.261,0.055C0.238,0.052 0.211,0.048 0.182,0.043C0.182,0.044 0.181,0.048 0.179,0.057C0.178,0.062 0.176,0.069 0.172,0.079C0.168,0.088 0.166,0.099 0.166,0.112L0.166,0.126C0.167,0.132 0.167,0.136 0.167,0.139C0.167,0.158 0.157,0.168 0.137,0.168C0.128,0.168 0.115,0.166 0.1,0.162C0.1,0.161 0.098,0.16 0.095,0.158C0.092,0.156 0.09,0.154 0.09,0.151C0.096,0.145 0.111,0.139 0.134,0.133L0.136,0.131C0.143,0.093 0.149,0.055 0.155,0.017C0.164,-0.041 0.168,-0.082 0.168,-0.106C0.168,-0.113 0.168,-0.119 0.169,-0.124C0.169,-0.129 0.167,-0.143 0.163,-0.169C0.158,-0.194 0.154,-0.208 0.15,-0.213C0.149,-0.226 0.148,-0.24 0.147,-0.254C0.146,-0.27 0.146,-0.284 0.148,-0.295C0.146,-0.302 0.145,-0.313 0.144,-0.33C0.143,-0.347 0.141,-0.359 0.136,-0.367C0.136,-0.372 0.132,-0.398 0.123,-0.443C0.116,-0.48 0.113,-0.503 0.114,-0.512C0.115,-0.515 0.114,-0.519 0.113,-0.523C0.106,-0.544 0.103,-0.559 0.104,-0.567L0.104,-0.58L0.107,-0.598C0.085,-0.605 0.074,-0.611 0.074,-0.614C0.074,-0.616 0.074,-0.617 0.075,-0.618C0.08,-0.617 0.086,-0.618 0.093,-0.621C0.098,-0.619 0.106,-0.618 0.116,-0.619L0.114,-0.621L0.121,-0.628L0.125,-0.628C0.123,-0.629 0.122,-0.631 0.122,-0.634L0.123,-0.632L0.124,-0.638L0.125,-0.638L0.123,-0.639L0.124,-0.643C0.111,-0.651 0.098,-0.656 0.086,-0.659C0.079,-0.664 0.077,-0.67 0.078,-0.675L0.084,-0.686C0.097,-0.687 0.113,-0.679 0.133,-0.661L0.138,-0.662C0.137,-0.664 0.137,-0.665 0.136,-0.664L0.141,-0.665L0.147,-0.671L0.148,-0.674L0.15,-0.674C0.15,-0.679 0.148,-0.682 0.145,-0.684C0.142,-0.685 0.14,-0.687 0.14,-0.689C0.137,-0.69 0.135,-0.693 0.135,-0.696C0.136,-0.698 0.136,-0.699 0.135,-0.699L0.138,-0.703L0.138,-0.704L0.139,-0.703C0.14,-0.704 0.142,-0.704 0.143,-0.704C0.145,-0.704 0.149,-0.702 0.156,-0.699C0.163,-0.695 0.167,-0.693 0.169,-0.694L0.17,-0.693C0.171,-0.694 0.171,-0.695 0.172,-0.696L0.173,-0.695C0.175,-0.696 0.176,-0.696 0.176,-0.695L0.18,-0.697L0.185,-0.697L0.185,-0.698L0.197,-0.699L0.198,-0.697C0.199,-0.697 0.201,-0.698 0.202,-0.7C0.203,-0.701 0.205,-0.701 0.206,-0.7L0.207,-0.702L0.212,-0.701L0.21,-0.703C0.213,-0.702 0.216,-0.702 0.219,-0.703L0.218,-0.701L0.223,-0.701L0.221,-0.704C0.222,-0.705 0.223,-0.704 0.226,-0.703L0.23,-0.705L0.232,-0.702L0.233,-0.706L0.234,-0.703C0.236,-0.705 0.239,-0.705 0.243,-0.703L0.244,-0.701L0.248,-0.702C0.247,-0.701 0.246,-0.701 0.247,-0.701L0.25,-0.7L0.25,-0.699C0.255,-0.7 0.259,-0.7 0.261,-0.697L0.268,-0.697C0.265,-0.697 0.265,-0.696 0.269,-0.695L0.271,-0.698C0.271,-0.696 0.273,-0.695 0.277,-0.695C0.278,-0.695 0.279,-0.695 0.28,-0.694L0.282,-0.696L0.285,-0.691L0.289,-0.691L0.291,-0.688C0.303,-0.685 0.309,-0.683 0.308,-0.681C0.313,-0.678 0.316,-0.677 0.319,-0.678C0.322,-0.677 0.326,-0.674 0.331,-0.67C0.332,-0.67 0.333,-0.67 0.333,-0.669L0.345,-0.662L0.346,-0.663C0.347,-0.658 0.349,-0.656 0.353,-0.658L0.358,-0.656L0.359,-0.656L0.357,-0.655C0.36,-0.654 0.364,-0.652 0.369,-0.648C0.371,-0.651 0.373,-0.651 0.376,-0.646C0.385,-0.64 0.391,-0.638 0.392,-0.639C0.406,-0.656 0.424,-0.664 0.446,-0.664C0.472,-0.664 0.487,-0.651 0.492,-0.626C0.495,-0.625 0.498,-0.623 0.499,-0.62C0.5,-0.616 0.5,-0.612 0.501,-0.609C0.502,-0.597 0.5,-0.58 0.497,-0.558L0.495,-0.556C0.498,-0.553 0.502,-0.549 0.507,-0.542L0.506,-0.543C0.505,-0.54 0.507,-0.536 0.51,-0.531C0.513,-0.526 0.515,-0.523 0.516,-0.522L0.518,-0.521L0.518,-0.516L0.519,-0.516L0.522,-0.507L0.519,-0.512C0.52,-0.505 0.522,-0.498 0.527,-0.493C0.529,-0.487 0.532,-0.479 0.536,-0.469ZM0.471,-0.583C0.472,-0.584 0.472,-0.586 0.472,-0.587C0.472,-0.589 0.47,-0.591 0.465,-0.594C0.46,-0.597 0.458,-0.598 0.457,-0.599C0.457,-0.603 0.456,-0.607 0.455,-0.611C0.454,-0.614 0.453,-0.616 0.453,-0.617C0.453,-0.62 0.456,-0.624 0.462,-0.631L0.455,-0.636C0.45,-0.637 0.443,-0.635 0.432,-0.632C0.421,-0.628 0.415,-0.624 0.415,-0.62C0.415,-0.617 0.418,-0.615 0.424,-0.613L0.425,-0.614L0.441,-0.604L0.437,-0.607C0.442,-0.608 0.446,-0.604 0.451,-0.596C0.458,-0.594 0.464,-0.59 0.471,-0.583ZM0.468,-0.582C0.468,-0.584 0.466,-0.586 0.461,-0.589L0.468,-0.582ZM0.243,-0.691L0.243,-0.693L0.243,-0.691ZM0.222,-0.693C0.22,-0.698 0.218,-0.7 0.216,-0.697L0.217,-0.696L0.215,-0.694L0.219,-0.693L0.222,-0.693ZM0.452,-0.407C0.453,-0.418 0.452,-0.426 0.451,-0.431L0.41,-0.431C0.406,-0.428 0.404,-0.414 0.405,-0.39C0.406,-0.367 0.407,-0.352 0.41,-0.345C0.418,-0.344 0.426,-0.352 0.434,-0.367C0.439,-0.378 0.445,-0.388 0.45,-0.399L0.444,-0.398L0.437,-0.4C0.44,-0.401 0.445,-0.404 0.452,-0.407ZM0.379,-0.43C0.369,-0.43 0.343,-0.427 0.302,-0.422C0.3,-0.413 0.299,-0.404 0.299,-0.396C0.299,-0.368 0.313,-0.349 0.34,-0.339C0.36,-0.358 0.372,-0.376 0.377,-0.394C0.377,-0.402 0.378,-0.414 0.379,-0.43ZM0.51,-0.466L0.503,-0.476C0.498,-0.489 0.487,-0.508 0.472,-0.534C0.462,-0.547 0.446,-0.562 0.425,-0.579L0.426,-0.58C0.401,-0.601 0.37,-0.624 0.332,-0.651C0.314,-0.658 0.287,-0.668 0.252,-0.681C0.245,-0.684 0.236,-0.685 0.227,-0.685C0.207,-0.685 0.187,-0.68 0.168,-0.669C0.161,-0.665 0.154,-0.653 0.145,-0.633C0.135,-0.613 0.131,-0.59 0.131,-0.564C0.131,-0.549 0.136,-0.511 0.147,-0.451C0.153,-0.419 0.158,-0.38 0.161,-0.334C0.164,-0.295 0.166,-0.256 0.169,-0.217C0.17,-0.214 0.172,-0.21 0.175,-0.205C0.18,-0.188 0.181,-0.166 0.18,-0.14C0.179,-0.138 0.178,-0.136 0.177,-0.135C0.177,-0.134 0.179,-0.132 0.183,-0.13C0.186,-0.127 0.188,-0.125 0.188,-0.122C0.19,-0.1 0.19,-0.08 0.187,-0.062C0.187,-0.051 0.189,-0.035 0.192,-0.013C0.193,-0.008 0.192,-0.001 0.19,0.007C0.187,0.015 0.186,0.021 0.187,0.024C0.199,0.021 0.219,0.021 0.246,0.023C0.277,0.026 0.295,0.031 0.298,0.039C0.311,0.036 0.331,0.036 0.357,0.039C0.394,0.028 0.42,0.024 0.433,0.028C0.434,0.029 0.436,0.03 0.438,0.031C0.44,0.032 0.441,0.032 0.442,0.03C0.445,0.025 0.449,0.018 0.454,0.009L0.477,-0.075C0.476,-0.087 0.473,-0.096 0.469,-0.101C0.469,-0.096 0.468,-0.091 0.467,-0.087L0.46,-0.089L0.461,-0.09L0.457,-0.092L0.46,-0.089L0.459,-0.088C0.46,-0.086 0.46,-0.085 0.459,-0.085C0.44,-0.078 0.396,-0.074 0.328,-0.074C0.282,-0.074 0.252,-0.076 0.239,-0.081C0.234,-0.082 0.229,-0.087 0.222,-0.094C0.215,-0.1 0.211,-0.106 0.212,-0.111C0.209,-0.115 0.207,-0.129 0.206,-0.153C0.205,-0.169 0.205,-0.185 0.204,-0.202C0.201,-0.206 0.2,-0.213 0.199,-0.222C0.198,-0.231 0.197,-0.237 0.196,-0.24C0.197,-0.241 0.197,-0.243 0.196,-0.246C0.194,-0.249 0.193,-0.25 0.193,-0.251C0.193,-0.253 0.194,-0.254 0.197,-0.255C0.196,-0.262 0.195,-0.275 0.192,-0.292C0.189,-0.309 0.187,-0.323 0.187,-0.333C0.187,-0.345 0.193,-0.363 0.206,-0.388C0.228,-0.429 0.283,-0.451 0.37,-0.452C0.421,-0.453 0.449,-0.454 0.452,-0.453C0.46,-0.458 0.466,-0.46 0.471,-0.459L0.47,-0.456L0.477,-0.457L0.479,-0.454L0.475,-0.451C0.476,-0.449 0.476,-0.444 0.477,-0.435L0.508,-0.438C0.511,-0.441 0.512,-0.446 0.511,-0.452C0.51,-0.463 0.51,-0.467 0.51,-0.466ZM0.294,-0.337L0.291,-0.339L0.29,-0.335L0.294,-0.337ZM0.275,-0.415C0.244,-0.4 0.225,-0.379 0.217,-0.352L0.224,-0.352L0.223,-0.35C0.228,-0.347 0.231,-0.345 0.233,-0.342C0.231,-0.341 0.231,-0.341 0.232,-0.341L0.233,-0.342C0.243,-0.335 0.251,-0.333 0.257,-0.335C0.27,-0.348 0.277,-0.36 0.277,-0.371C0.277,-0.374 0.277,-0.378 0.276,-0.385C0.275,-0.392 0.274,-0.397 0.274,-0.401C0.274,-0.406 0.274,-0.41 0.275,-0.415ZM0.441,-0.103C0.441,-0.119 0.441,-0.135 0.44,-0.15C0.439,-0.176 0.436,-0.189 0.429,-0.188C0.419,-0.187 0.409,-0.178 0.399,-0.16C0.388,-0.141 0.383,-0.126 0.383,-0.113L0.383,-0.106C0.383,-0.104 0.384,-0.101 0.385,-0.097C0.393,-0.096 0.411,-0.098 0.439,-0.101L0.441,-0.103ZM0.394,-0.197C0.394,-0.2 0.393,-0.204 0.391,-0.209C0.378,-0.225 0.356,-0.233 0.326,-0.233C0.319,-0.233 0.313,-0.232 0.309,-0.23L0.315,-0.224C0.319,-0.223 0.323,-0.218 0.328,-0.209L0.319,-0.209L0.316,-0.203C0.312,-0.204 0.306,-0.206 0.297,-0.209L0.294,-0.207C0.289,-0.207 0.281,-0.208 0.27,-0.211C0.259,-0.214 0.251,-0.215 0.245,-0.215C0.24,-0.215 0.235,-0.214 0.23,-0.213L0.23,-0.208L0.259,-0.202L0.259,-0.2C0.289,-0.189 0.317,-0.183 0.343,-0.183C0.365,-0.183 0.382,-0.188 0.394,-0.197ZM0.356,-0.098C0.354,-0.099 0.352,-0.109 0.35,-0.127C0.347,-0.144 0.344,-0.153 0.339,-0.153C0.337,-0.153 0.335,-0.152 0.333,-0.15C0.318,-0.125 0.311,-0.108 0.31,-0.1C0.333,-0.097 0.348,-0.097 0.356,-0.098ZM0.282,-0.099C0.281,-0.112 0.278,-0.129 0.272,-0.15C0.265,-0.149 0.259,-0.144 0.255,-0.136C0.25,-0.128 0.246,-0.12 0.243,-0.113L0.244,-0.112C0.24,-0.109 0.239,-0.106 0.24,-0.105C0.241,-0.103 0.242,-0.101 0.241,-0.1C0.25,-0.1 0.264,-0.1 0.282,-0.099ZM0.219,-0.697C0.219,-0.696 0.219,-0.695 0.218,-0.695L0.218,-0.697L0.219,-0.697ZM0.231,-0.473L0.229,-0.471C0.229,-0.474 0.227,-0.475 0.222,-0.474C0.197,-0.481 0.184,-0.489 0.182,-0.497C0.177,-0.518 0.172,-0.531 0.169,-0.536C0.165,-0.558 0.181,-0.58 0.218,-0.601C0.267,-0.6 0.292,-0.58 0.292,-0.543C0.292,-0.527 0.286,-0.512 0.276,-0.499C0.265,-0.486 0.25,-0.477 0.231,-0.473ZM0.303,-0.199C0.303,-0.198 0.302,-0.198 0.301,-0.198L0.302,-0.201L0.303,-0.199ZM0.225,-0.57C0.218,-0.565 0.209,-0.556 0.197,-0.544C0.198,-0.534 0.202,-0.52 0.209,-0.501C0.214,-0.499 0.22,-0.499 0.227,-0.502C0.234,-0.504 0.24,-0.506 0.246,-0.509C0.256,-0.523 0.261,-0.537 0.261,-0.551C0.261,-0.567 0.255,-0.575 0.242,-0.575C0.237,-0.575 0.232,-0.573 0.225,-0.57ZM0.237,-0.533C0.238,-0.532 0.239,-0.531 0.239,-0.53C0.239,-0.529 0.238,-0.527 0.236,-0.524C0.234,-0.521 0.233,-0.518 0.234,-0.515C0.231,-0.51 0.226,-0.509 0.217,-0.512L0.215,-0.51C0.208,-0.515 0.204,-0.523 0.204,-0.532C0.204,-0.54 0.207,-0.544 0.214,-0.544C0.217,-0.544 0.222,-0.542 0.227,-0.539C0.232,-0.536 0.236,-0.534 0.237,-0.533Z" style="fill-rule:nonzero;"/>
            </g>
        </g>
    </g>
</svg>
