<?xml version="1.0" encoding="UTF-8" standalone="no"?>
<!DOCTYPE svg PUBLIC "-//W3C//DTD SVG 1.1//EN" "http://www.w3.org/Graphics/SVG/1.1/DTD/svg11.dtd">
<svg width="87px" height="68px" version="1.1" xmlns="http://www.w3.org/2000/svg" xmlns:xlink="http://www.w3.org/1999/xlink" xml:space="preserve" xmlns:serif="http://www.serif.com/" style="fill-rule:evenodd;clip-rule:evenodd;stroke-linejoin:round;stroke-miterlimit:2;">
    <g transform="matrix(1,0,0,1,-196.814,-20.1581)">
        <g transform="matrix(1.34374,0,0,1.67222,-1425.89,9.14673)">
            <g transform="matrix(89.3028,0,0,71.7609,1203.59,33.6388)">
                <path d="M0.763,-0.301L0.759,-0.294L0.754,-0.294L0.754,-0.292L0.751,-0.294L0.749,-0.29C0.746,-0.293 0.729,-0.288 0.699,-0.276C0.701,-0.273 0.702,-0.267 0.701,-0.259C0.698,-0.253 0.697,-0.247 0.698,-0.241C0.699,-0.24 0.7,-0.237 0.7,-0.232C0.7,-0.227 0.701,-0.225 0.704,-0.224C0.701,-0.223 0.7,-0.22 0.701,-0.216C0.695,-0.221 0.692,-0.219 0.692,-0.212L0.689,-0.217L0.688,-0.214L0.685,-0.216C0.664,-0.212 0.643,-0.208 0.622,-0.204C0.594,-0.199 0.575,-0.193 0.565,-0.186C0.555,-0.179 0.54,-0.17 0.52,-0.157L0.517,-0.155L0.518,-0.154C0.513,-0.154 0.509,-0.151 0.504,-0.144C0.499,-0.142 0.492,-0.139 0.482,-0.134C0.478,-0.104 0.476,-0.084 0.477,-0.073C0.47,-0.051 0.465,-0.014 0.464,0.038C0.463,0.105 0.461,0.144 0.46,0.154C0.475,0.153 0.499,0.155 0.532,0.159L0.533,0.159C0.533,0.16 0.533,0.16 0.532,0.161C0.531,0.162 0.531,0.162 0.531,0.163L0.534,0.168L0.532,0.176L0.536,0.178L0.531,0.179L0.531,0.181L0.521,0.182L0.524,0.183C0.509,0.184 0.486,0.185 0.455,0.184L0.453,0.188L0.447,0.184L0.438,0.185C0.435,0.185 0.432,0.183 0.428,0.18L0.427,0.172C0.43,0.171 0.433,0.163 0.435,0.148C0.436,0.139 0.437,0.121 0.436,0.096C0.435,0.075 0.437,0.058 0.44,0.045C0.445,0.026 0.448,-0.002 0.449,-0.038C0.45,-0.081 0.452,-0.109 0.454,-0.122C0.445,-0.121 0.432,-0.118 0.415,-0.114L0.41,-0.105C0.411,-0.092 0.411,-0.072 0.408,-0.045C0.405,-0.014 0.404,0.008 0.404,0.019C0.404,0.032 0.405,0.043 0.407,0.052C0.406,0.065 0.404,0.091 0.402,0.13C0.4,0.161 0.396,0.175 0.391,0.173C0.39,0.172 0.388,0.171 0.387,0.172L0.389,0.176C0.373,0.175 0.348,0.176 0.315,0.179C0.315,0.177 0.314,0.176 0.312,0.175C0.308,0.175 0.306,0.175 0.305,0.174L0.298,0.172C0.298,0.17 0.302,0.167 0.31,0.163C0.338,0.158 0.359,0.156 0.373,0.157C0.374,0.132 0.374,0.116 0.374,0.109C0.375,0.092 0.378,0.076 0.383,0.063C0.385,0.057 0.385,0.05 0.384,0.042C0.383,0.035 0.382,0.029 0.381,0.022C0.38,0.008 0.384,-0.037 0.392,-0.114C0.358,-0.119 0.333,-0.128 0.317,-0.139C0.297,-0.153 0.284,-0.175 0.279,-0.206C0.254,-0.205 0.213,-0.206 0.157,-0.207C0.088,-0.208 0.051,-0.209 0.048,-0.212C0.045,-0.215 0.044,-0.217 0.046,-0.22C0.049,-0.226 0.067,-0.238 0.098,-0.257C0.127,-0.274 0.147,-0.285 0.156,-0.289C0.169,-0.294 0.203,-0.302 0.259,-0.312C0.312,-0.321 0.347,-0.326 0.365,-0.327C0.369,-0.35 0.385,-0.362 0.413,-0.362C0.435,-0.362 0.449,-0.351 0.456,-0.33C0.46,-0.326 0.466,-0.321 0.475,-0.315L0.491,-0.3C0.51,-0.312 0.558,-0.337 0.634,-0.375C0.639,-0.377 0.645,-0.377 0.651,-0.376C0.656,-0.374 0.661,-0.37 0.665,-0.365C0.669,-0.359 0.672,-0.356 0.673,-0.356C0.685,-0.361 0.702,-0.367 0.723,-0.374L0.73,-0.377C0.731,-0.375 0.732,-0.374 0.735,-0.375L0.73,-0.372C0.738,-0.368 0.742,-0.366 0.743,-0.367L0.74,-0.364C0.741,-0.359 0.743,-0.352 0.747,-0.343C0.751,-0.334 0.755,-0.321 0.76,-0.304L0.758,-0.301L0.763,-0.301ZM0.731,-0.309C0.728,-0.318 0.725,-0.333 0.721,-0.352C0.713,-0.349 0.665,-0.328 0.577,-0.291C0.598,-0.29 0.609,-0.289 0.61,-0.289C0.625,-0.286 0.633,-0.282 0.634,-0.275C0.669,-0.292 0.702,-0.303 0.731,-0.309ZM0.649,-0.347L0.642,-0.356C0.622,-0.349 0.58,-0.327 0.517,-0.29C0.526,-0.29 0.57,-0.309 0.649,-0.347ZM0.669,-0.24L0.669,-0.265C0.66,-0.26 0.646,-0.254 0.627,-0.247C0.619,-0.248 0.613,-0.243 0.608,-0.232C0.621,-0.233 0.642,-0.236 0.669,-0.24ZM0.462,-0.285C0.46,-0.291 0.457,-0.297 0.452,-0.302C0.451,-0.297 0.448,-0.293 0.443,-0.289C0.435,-0.282 0.431,-0.279 0.43,-0.278L0.434,-0.278C0.44,-0.281 0.449,-0.284 0.462,-0.285ZM0.414,-0.295C0.426,-0.303 0.432,-0.313 0.432,-0.324C0.432,-0.334 0.425,-0.339 0.412,-0.339C0.391,-0.339 0.38,-0.331 0.38,-0.315C0.38,-0.31 0.382,-0.304 0.387,-0.299C0.389,-0.296 0.393,-0.294 0.399,-0.295L0.414,-0.295ZM0.597,-0.26C0.59,-0.261 0.579,-0.261 0.564,-0.26L0.559,-0.258C0.557,-0.259 0.551,-0.259 0.54,-0.259L0.539,-0.257C0.528,-0.259 0.515,-0.259 0.502,-0.257L0.502,-0.258L0.492,-0.256C0.481,-0.256 0.466,-0.255 0.445,-0.252C0.436,-0.253 0.43,-0.257 0.427,-0.265C0.413,-0.263 0.406,-0.262 0.405,-0.262L0.398,-0.264C0.398,-0.265 0.397,-0.266 0.394,-0.267C0.391,-0.267 0.389,-0.268 0.389,-0.269C0.373,-0.272 0.363,-0.284 0.36,-0.304C0.23,-0.289 0.14,-0.262 0.09,-0.224C0.097,-0.223 0.132,-0.225 0.195,-0.229L0.297,-0.229L0.3,-0.228L0.294,-0.223C0.298,-0.223 0.302,-0.217 0.307,-0.205C0.311,-0.193 0.319,-0.182 0.332,-0.171C0.344,-0.16 0.356,-0.153 0.369,-0.15C0.374,-0.149 0.379,-0.149 0.385,-0.149C0.4,-0.149 0.426,-0.154 0.461,-0.163C0.464,-0.169 0.466,-0.172 0.467,-0.173C0.468,-0.173 0.471,-0.172 0.477,-0.171C0.486,-0.174 0.496,-0.179 0.508,-0.187L0.508,-0.184L0.511,-0.184C0.532,-0.196 0.552,-0.213 0.573,-0.234C0.578,-0.235 0.586,-0.244 0.597,-0.26ZM0.414,-0.319C0.412,-0.314 0.409,-0.309 0.406,-0.306L0.405,-0.303L0.401,-0.308L0.4,-0.307L0.395,-0.322C0.397,-0.325 0.403,-0.324 0.414,-0.319Z" style="fill-rule:nonzero;"/>
            </g>
        </g>
    </g>
</svg>
