<?xml version="1.0" encoding="UTF-8" standalone="no"?>
<!DOCTYPE svg PUBLIC "-//W3C//DTD SVG 1.1//EN" "http://www.w3.org/Graphics/SVG/1.1/DTD/svg11.dtd">
<svg width="53px" height="59px" version="1.1" xmlns="http://www.w3.org/2000/svg" xmlns:xlink="http://www.w3.org/1999/xlink" xml:space="preserve" xmlns:serif="http://www.serif.com/" style="fill-rule:evenodd;clip-rule:evenodd;stroke-linejoin:round;stroke-miterlimit:2;">
    <g transform="matrix(1,0,0,1,-316.232,-19.2603)">
        <g transform="matrix(1.34374,0,0,1.67222,-1425.89,9.14673)">
            <g transform="matrix(89.3028,0,0,71.7609,1291.76,29.0115)">
                <path d="M0.489,-0.044C0.489,-0.029 0.489,-0.019 0.488,-0.016L0.486,-0.015L0.486,-0.011L0.482,-0.008L0.482,-0.004C0.481,-0.003 0.478,-0.003 0.473,-0.002L0.474,-0.001C0.461,-0.002 0.443,-0.001 0.419,0.001L0.422,0L0.416,0L0.416,0.002C0.405,0.002 0.39,0.002 0.369,0.003C0.369,0.008 0.369,0.015 0.368,0.024L0.367,0.024C0.37,0.03 0.37,0.035 0.367,0.038C0.368,0.04 0.37,0.041 0.371,0.04C0.374,0.046 0.377,0.051 0.378,0.055L0.375,0.059L0.375,0.061L0.376,0.061L0.374,0.065C0.375,0.07 0.377,0.072 0.38,0.071L0.379,0.076L0.384,0.079L0.38,0.079C0.381,0.083 0.382,0.084 0.383,0.083L0.38,0.085L0.38,0.086C0.381,0.091 0.38,0.094 0.377,0.096L0.376,0.101L0.374,0.103L0.377,0.109L0.371,0.116C0.371,0.119 0.372,0.124 0.374,0.13C0.374,0.131 0.374,0.132 0.374,0.131L0.372,0.129L0.375,0.135C0.387,0.137 0.398,0.137 0.408,0.135L0.411,0.144L0.409,0.145L0.41,0.146C0.41,0.147 0.409,0.148 0.406,0.149C0.403,0.149 0.403,0.15 0.404,0.151L0.408,0.151L0.408,0.152C0.407,0.153 0.405,0.155 0.402,0.156L0.405,0.159C0.401,0.159 0.395,0.16 0.388,0.163C0.386,0.162 0.381,0.161 0.373,0.162C0.364,0.162 0.359,0.159 0.356,0.154C0.353,0.153 0.351,0.148 0.348,0.14C0.348,0.131 0.35,0.117 0.355,0.099C0.356,0.096 0.355,0.086 0.35,0.069C0.349,0.07 0.342,0.07 0.329,0.069C0.316,0.068 0.309,0.068 0.307,0.067C0.29,0.069 0.277,0.069 0.268,0.068L0.267,0.066L0.255,0.065C0.25,0.066 0.24,0.067 0.226,0.066C0.211,0.065 0.201,0.067 0.196,0.071C0.197,0.077 0.196,0.081 0.193,0.084C0.194,0.091 0.194,0.099 0.192,0.109C0.189,0.121 0.188,0.129 0.188,0.133C0.191,0.137 0.208,0.139 0.24,0.139C0.24,0.142 0.241,0.146 0.243,0.151C0.241,0.151 0.24,0.153 0.24,0.156C0.239,0.159 0.238,0.16 0.237,0.161L0.232,0.167C0.196,0.166 0.179,0.166 0.18,0.166L0.179,0.167C0.17,0.152 0.166,0.136 0.167,0.117C0.168,0.09 0.168,0.073 0.167,0.066C0.122,0.073 0.1,0.076 0.101,0.076C0.092,0.076 0.083,0.075 0.076,0.072C0.071,0.059 0.068,0.051 0.068,0.049C0.065,0.044 0.072,0.034 0.088,0.019C0.099,0.01 0.109,0 0.12,-0.009C0.116,-0.01 0.11,-0.01 0.103,-0.011L0.064,-0.018C0.064,-0.019 0.063,-0.021 0.061,-0.024C0.059,-0.027 0.058,-0.029 0.058,-0.031C0.055,-0.034 0.054,-0.037 0.054,-0.041C0.054,-0.05 0.062,-0.062 0.079,-0.077C0.09,-0.086 0.101,-0.096 0.112,-0.105C0.1,-0.108 0.084,-0.114 0.063,-0.122C0.064,-0.125 0.062,-0.127 0.059,-0.13C0.055,-0.132 0.054,-0.134 0.055,-0.136C0.052,-0.137 0.052,-0.139 0.056,-0.142C0.055,-0.145 0.054,-0.149 0.055,-0.154C0.061,-0.161 0.075,-0.168 0.096,-0.177C0.111,-0.183 0.126,-0.189 0.141,-0.195C0.135,-0.202 0.125,-0.213 0.112,-0.228C0.108,-0.23 0.103,-0.236 0.097,-0.247C0.098,-0.252 0.112,-0.256 0.139,-0.258C0.162,-0.26 0.178,-0.26 0.187,-0.258C0.187,-0.26 0.184,-0.275 0.177,-0.303C0.174,-0.304 0.173,-0.307 0.174,-0.31C0.175,-0.314 0.175,-0.317 0.176,-0.318C0.176,-0.319 0.181,-0.32 0.192,-0.32C0.194,-0.319 0.211,-0.31 0.242,-0.294C0.273,-0.277 0.29,-0.269 0.294,-0.268C0.297,-0.271 0.298,-0.276 0.299,-0.283C0.299,-0.29 0.3,-0.294 0.302,-0.297C0.301,-0.302 0.305,-0.305 0.312,-0.306C0.319,-0.307 0.324,-0.305 0.328,-0.302C0.34,-0.299 0.354,-0.286 0.369,-0.261C0.392,-0.225 0.403,-0.207 0.403,-0.207C0.406,-0.208 0.409,-0.208 0.412,-0.208C0.435,-0.208 0.453,-0.198 0.466,-0.178C0.467,-0.177 0.468,-0.177 0.469,-0.179L0.474,-0.158C0.473,-0.148 0.468,-0.136 0.461,-0.121C0.461,-0.114 0.458,-0.107 0.452,-0.101L0.454,-0.1C0.452,-0.099 0.45,-0.098 0.447,-0.096L0.449,-0.093L0.45,-0.088C0.456,-0.083 0.463,-0.076 0.471,-0.065C0.479,-0.054 0.485,-0.047 0.489,-0.044ZM0.441,-0.165C0.438,-0.169 0.432,-0.174 0.425,-0.179L0.421,-0.182C0.402,-0.18 0.392,-0.179 0.392,-0.179L0.386,-0.176L0.385,-0.174C0.379,-0.173 0.375,-0.171 0.372,-0.169C0.366,-0.168 0.361,-0.165 0.358,-0.159C0.354,-0.152 0.35,-0.146 0.347,-0.141C0.345,-0.125 0.351,-0.109 0.366,-0.094C0.381,-0.093 0.395,-0.096 0.409,-0.105C0.412,-0.106 0.415,-0.109 0.419,-0.113C0.423,-0.114 0.427,-0.117 0.431,-0.122C0.434,-0.127 0.437,-0.131 0.439,-0.132C0.438,-0.139 0.439,-0.15 0.441,-0.165ZM0.457,-0.03C0.438,-0.044 0.426,-0.059 0.421,-0.074L0.416,-0.072C0.413,-0.073 0.41,-0.072 0.407,-0.071C0.404,-0.07 0.401,-0.069 0.4,-0.069C0.394,-0.065 0.381,-0.063 0.362,-0.063L0.356,-0.064C0.355,-0.065 0.355,-0.065 0.355,-0.064C0.33,-0.071 0.317,-0.092 0.317,-0.126C0.317,-0.161 0.334,-0.187 0.369,-0.203C0.36,-0.213 0.355,-0.223 0.354,-0.233C0.346,-0.248 0.335,-0.262 0.321,-0.274C0.318,-0.271 0.316,-0.266 0.315,-0.261C0.314,-0.254 0.308,-0.244 0.299,-0.233L0.297,-0.235C0.289,-0.235 0.275,-0.24 0.256,-0.251C0.231,-0.265 0.216,-0.273 0.213,-0.274C0.216,-0.267 0.219,-0.258 0.224,-0.245C0.225,-0.242 0.224,-0.238 0.221,-0.234C0.218,-0.23 0.216,-0.227 0.216,-0.226C0.213,-0.221 0.193,-0.222 0.157,-0.227C0.158,-0.22 0.162,-0.213 0.171,-0.206C0.179,-0.199 0.184,-0.193 0.185,-0.19C0.187,-0.187 0.187,-0.182 0.185,-0.177C0.181,-0.17 0.179,-0.166 0.179,-0.166C0.161,-0.16 0.138,-0.152 0.11,-0.141C0.119,-0.138 0.132,-0.135 0.15,-0.13C0.158,-0.124 0.161,-0.117 0.159,-0.108C0.157,-0.107 0.156,-0.105 0.156,-0.102C0.156,-0.098 0.155,-0.097 0.154,-0.096L0.153,-0.097C0.14,-0.086 0.12,-0.068 0.095,-0.045C0.107,-0.045 0.125,-0.044 0.148,-0.043C0.151,-0.042 0.156,-0.039 0.162,-0.036C0.164,-0.031 0.166,-0.027 0.167,-0.022C0.168,-0.017 0.165,-0.012 0.159,-0.009L0.157,-0.003C0.14,0.009 0.122,0.025 0.103,0.044C0.109,0.043 0.119,0.041 0.134,0.038C0.147,0.035 0.157,0.033 0.164,0.033C0.175,0.033 0.184,0.036 0.192,0.041C0.206,0.039 0.22,0.039 0.233,0.041C0.24,0.038 0.277,0.04 0.342,0.045C0.339,0.03 0.339,0.016 0.344,0.003C0.292,0.004 0.262,0 0.253,-0.011C0.254,-0.014 0.256,-0.016 0.261,-0.018C0.266,-0.02 0.268,-0.022 0.269,-0.024C0.282,-0.023 0.308,-0.025 0.345,-0.028C0.385,-0.031 0.412,-0.032 0.427,-0.032C0.44,-0.032 0.45,-0.031 0.457,-0.03ZM0.412,-0.14C0.408,-0.137 0.404,-0.131 0.399,-0.122C0.392,-0.113 0.386,-0.115 0.383,-0.127C0.382,-0.13 0.382,-0.133 0.383,-0.138C0.381,-0.143 0.381,-0.147 0.384,-0.15L0.389,-0.153C0.394,-0.152 0.399,-0.15 0.404,-0.149C0.409,-0.148 0.412,-0.145 0.412,-0.14ZM0.295,-0.131C0.295,-0.116 0.288,-0.102 0.275,-0.09C0.262,-0.077 0.247,-0.071 0.231,-0.071C0.206,-0.071 0.191,-0.088 0.188,-0.121C0.186,-0.142 0.191,-0.159 0.204,-0.172C0.215,-0.183 0.23,-0.188 0.247,-0.188C0.261,-0.188 0.273,-0.184 0.283,-0.177C0.293,-0.17 0.298,-0.16 0.298,-0.148C0.298,-0.143 0.297,-0.137 0.295,-0.131ZM0.272,-0.148C0.268,-0.155 0.26,-0.159 0.247,-0.159C0.22,-0.159 0.207,-0.146 0.207,-0.12C0.216,-0.107 0.225,-0.101 0.232,-0.101C0.236,-0.101 0.241,-0.103 0.248,-0.108C0.258,-0.116 0.265,-0.121 0.268,-0.123C0.271,-0.132 0.273,-0.14 0.272,-0.148ZM0.25,-0.138C0.25,-0.136 0.249,-0.134 0.247,-0.131C0.245,-0.128 0.244,-0.126 0.244,-0.125L0.242,-0.123L0.244,-0.114C0.239,-0.111 0.235,-0.115 0.231,-0.124C0.229,-0.129 0.227,-0.133 0.225,-0.138C0.227,-0.144 0.235,-0.144 0.25,-0.138Z" style="fill-rule:nonzero;"/>
            </g>
        </g>
    </g>
</svg>
