<?xml version="1.0" encoding="UTF-8" standalone="no"?>
<!DOCTYPE svg PUBLIC "-//W3C//DTD SVG 1.1//EN" "http://www.w3.org/Graphics/SVG/1.1/DTD/svg11.dtd">
<svg width="50px" height="43px" version="1.1" xmlns="http://www.w3.org/2000/svg" xmlns:xlink="http://www.w3.org/1999/xlink" xml:space="preserve" xmlns:serif="http://www.serif.com/" style="fill-rule:evenodd;clip-rule:evenodd;stroke-linejoin:round;stroke-miterlimit:2;">
    <g transform="matrix(1,0,0,1,-771.944,-367.11)">
        <g id="Checkmark" transform="matrix(4.39506,0,0,4.39506,815.65,399.256)">
            <path d="M0,-4.976C-0.252,-4.926 -0.368,-4.742 -0.603,-4.675C-0.902,-4.345 -1.351,-4.166 -1.584,-3.769C-1.683,-3.797 -1.702,-3.902 -1.809,-3.921C-1.942,-3.852 -1.976,-3.685 -1.961,-3.469C-2.032,-3.339 -2.21,-3.317 -2.263,-3.167C-2.536,-3.095 -2.325,-3.506 -2.564,-3.469C-3.125,-3.351 -2.731,-2.278 -3.393,-2.262C-3.352,-2.654 -3.416,-2.943 -3.544,-3.167C-3.061,-3.765 -2.57,-4.354 -2.036,-4.901C-1.438,-5.359 -0.977,-5.951 -0.227,-6.258C-0.199,-6.356 -0.094,-6.377 -0.075,-6.485L0.15,-6.485C0.124,-6.029 0.387,-5.866 0.452,-5.505C0.437,-5.191 0.054,-5.249 0,-4.976M-4.599,-0.905C-4.608,-1.273 -4.559,-1.699 -4.674,-1.96C-4.411,-2.174 -4.143,-2.383 -3.996,-2.714C-3.765,-2.575 -4.083,-2.356 -3.996,-2.11C-4.045,-1.836 -3.833,-1.822 -3.846,-1.584C-4.12,-1.381 -4.213,-0.997 -4.599,-0.905M-5.956,0.979C-6.091,0.925 -5.967,0.844 -5.956,0.754C-5.972,0.343 -5.905,-0.152 -6.031,-0.453C-5.746,-0.644 -5.59,-0.966 -5.353,-1.207C-5.118,-1.041 -5.472,-0.283 -5.127,-0.226C-5.377,0.203 -5.765,0.493 -5.956,0.979M-6.182,1.281C-6.222,1.243 -6.129,1.185 -6.107,1.206C-6.068,1.244 -6.162,1.302 -6.182,1.281M-6.56,0.151C-6.747,0.086 -6.537,-0.375 -6.711,-0.453C-6.991,-0.533 -6.83,-0.17 -7.087,-0.226C-6.939,-0.429 -7.043,-0.885 -7.012,-1.207C-7.176,-1.47 -6.942,-2.131 -7.313,-2.187C-7.471,-2.118 -7.543,-1.965 -7.54,-1.735C-7.712,-1.679 -7.471,-1.213 -7.766,-1.282L-7.766,-3.016C-7.323,-2.679 -7.041,-2.183 -6.786,-1.658C-6.731,-1.589 -6.649,-1.545 -6.56,-1.508C-6.526,-1.165 -6.366,-0.948 -6.258,-0.678C-6.336,-0.381 -6.568,-0.235 -6.56,0.151M-8.219,-3.092C-8.28,-3.304 -8.112,-3.288 -8.143,-3.469C-7.973,-3.413 -7.978,-3.181 -7.766,-3.167C-7.776,-3 -8.086,-3.134 -8.219,-3.092M0.603,-6.937C0.427,-7.049 0.278,-6.912 0.225,-7.012C0.137,-7.124 0.037,-7.224 -0.075,-7.314L-0.227,-7.314C-0.315,-7.277 -0.398,-7.233 -0.452,-7.162C-0.712,-7.058 -1.023,-6.869 -1.207,-6.785C-1.23,-6.775 -1.255,-6.654 -1.282,-6.635C-1.348,-6.588 -1.437,-6.61 -1.509,-6.56C-1.571,-6.516 -1.596,-6.382 -1.659,-6.333C-1.722,-6.284 -1.828,-6.304 -1.886,-6.258C-1.949,-6.209 -1.973,-6.084 -2.036,-6.032C-2.094,-5.984 -2.209,-5.998 -2.263,-5.957C-2.325,-5.907 -2.353,-5.786 -2.413,-5.73C-2.797,-5.369 -3.162,-5.067 -3.469,-4.675C-3.914,-4.191 -4.282,-3.628 -4.674,-3.092C-5.082,-2.533 -5.362,-1.876 -5.805,-1.433C-6.045,-1.972 -6.324,-2.473 -6.635,-2.941C-6.876,-3.504 -7.402,-3.781 -7.615,-4.373C-7.964,-4.326 -8.049,-4.543 -8.369,-4.524C-8.653,-4.404 -8.817,-4.167 -9.123,-4.071C-9.354,-3.875 -9.809,-3.903 -9.877,-3.544C-10.071,-3.525 -9.774,-3.414 -9.877,-3.242C-9.772,-3.196 -9.866,-2.952 -9.726,-2.941C-9.677,-2.689 -9.492,-2.572 -9.425,-2.337C-9.25,-1.883 -8.938,-1.567 -8.821,-1.055C-8.725,-0.926 -8.462,-0.963 -8.445,-0.755C-8.174,-0.194 -7.809,0.269 -7.54,0.829C-7.247,1.392 -6.942,1.94 -6.484,2.338C-5.731,2.086 -5.536,1.274 -5.052,0.754C-4.616,0.185 -4.112,-0.317 -3.695,-0.905C-3.494,-0.955 -3.419,-1.132 -3.318,-1.282C-3.159,-1.375 -3.024,-1.49 -2.865,-1.584C-2.803,-1.773 -2.601,-1.822 -2.489,-1.96C-2.284,-2.007 -2.3,-2.275 -2.036,-2.262C-1.576,-2.834 -0.972,-3.26 -0.452,-3.769C-0.187,-3.983 0.164,-4.11 0.377,-4.373C0.608,-4.393 0.716,-4.537 0.905,-4.599C1.021,-4.734 1.357,-4.649 1.432,-4.826C1.329,-5.702 0.751,-6.105 0.603,-6.937"/>
        </g>
    </g>
</svg>
