<?xml version="1.0" encoding="UTF-8" standalone="no"?>
<!DOCTYPE svg PUBLIC "-//W3C//DTD SVG 1.1//EN" "http://www.w3.org/Graphics/SVG/1.1/DTD/svg11.dtd">
<svg width="57px" height="53px" version="1.1" xmlns="http://www.w3.org/2000/svg" xmlns:xlink="http://www.w3.org/1999/xlink" xml:space="preserve" xmlns:serif="http://www.serif.com/" style="fill-rule:evenodd;clip-rule:evenodd;stroke-linejoin:round;stroke-miterlimit:2;">
    <g transform="matrix(1,0,0,1,-151.183,-183.002)">
        <g transform="matrix(0.211019,-0.157497,0.157497,0.211019,47.7825,233.894)">
            <path d="M457.852,107.28C414.639,106.859 377.147,143.223 365.202,188.193C360.837,204.624 359.899,222.071 363.15,239.216C367.564,262.486 379.668,285.271 402.798,303.717C449.066,341.208 500.56,329.996 532.486,298.96C553.255,278.77 565.775,249.972 563.458,220.332C562.049,202.304 555.039,183.984 541.277,167.053C522.959,145.292 496.771,138.37 472.349,142.78C447.615,147.247 424.855,163.198 414.888,186.038C407.474,202.625 406.287,219.794 410.354,235.049C414.641,251.13 424.768,265.186 440.477,274.133C451,280.192 473.267,279.193 490.717,271.823C503.605,266.38 513.531,257.423 515.752,246.574C518.624,232.622 516.957,217.926 511.74,206.436C507.283,196.62 500.156,189.168 491.158,185.71C479.411,181.196 464.877,184.222 455.897,192.867C447.809,200.654 443.763,212.965 450.36,228.835C452.079,232.821 456.712,234.661 460.697,232.941C464.683,231.221 466.523,226.589 464.803,222.603C461.103,214.334 462.248,207.704 466.399,203.487C471.35,198.458 479.547,196.601 486.263,198.977C493.563,201.559 498.67,208.562 501.556,217.074C504.338,225.281 505.074,234.912 503.396,244.186C501.713,253.455 490.887,259.725 479.331,263.469C466.889,267.5 453.048,268.538 445.85,264.582C432.721,257.288 423.955,245.766 420.476,232.384C417.101,219.405 418.74,204.804 425.358,190.862C434.413,172.213 453.922,159.839 474.624,156.904C493.968,154.161 514.496,159.961 528.307,177.588C542.841,195.434 548.164,215.101 546.941,233.82C545.594,254.445 536.428,273.981 522.211,288.718C495.148,316.769 450.468,327.368 408.839,295.989C387.336,279.517 375.343,258.987 371.366,237.67C368.424,221.903 369.877,205.778 374.452,190.836C386.31,152.105 419.755,120.776 457.31,123.001C461.649,123.151 465.293,119.75 465.442,115.411C465.592,111.073 462.191,107.429 457.852,107.28Z"/>
        </g>
    </g>
</svg>
