<?xml version="1.0" encoding="UTF-8" standalone="no"?>
<!DOCTYPE svg PUBLIC "-//W3C//DTD SVG 1.1//EN" "http://www.w3.org/Graphics/SVG/1.1/DTD/svg11.dtd">
<svg width="50px" height="52px" version="1.1" xmlns="http://www.w3.org/2000/svg" xmlns:xlink="http://www.w3.org/1999/xlink" xml:space="preserve" xmlns:serif="http://www.serif.com/" style="fill-rule:evenodd;clip-rule:evenodd;stroke-linejoin:round;stroke-miterlimit:2;">
    <g transform="matrix(1,0,0,1,-646.438,-363.364)">
        <g id="Alert" transform="matrix(2.88434,0,0,2.88434,673.969,382.712)">
            <path d="M0,4.592C-0.89,4.544 -1.364,4.909 -1.755,5.361C-1.841,6.287 -1.668,6.956 -0.986,7.115C-0.585,7.152 -0.377,6.994 -0.109,6.897C0.122,6.725 0.5,6.701 0.549,6.348C0.759,6.066 0.633,5.207 0.549,5.032C0.437,4.795 0.106,4.819 0,4.592M-0.219,1.63C-0.467,1.513 -0.26,0.941 -0.328,0.643C-0.195,0.447 -0.309,0.005 -0.109,-0.126C-0.03,-0.461 -0.298,-0.448 -0.219,-0.784C-0.016,-0.8 -0.152,-1.155 0,-1.222C0.129,-1.241 0.195,-1.198 0.22,-1.113C0.324,0.051 -0.101,0.687 -0.219,1.63M-1.316,-1.661C-1.38,-1.565 -1.406,-1.47 -1.535,-1.442C-1.552,-1.312 -1.516,-1.13 -1.644,-1.113C-1.65,0.721 -1.75,2.649 -1.097,3.825C-0.474,3.74 -0.247,3.812 0.22,3.715C0.57,3.297 0.536,2.494 0.769,1.959C0.929,1.352 1.072,0.727 1.207,0.094C1.267,-0.88 1.143,-1.669 0.658,-2.1C-0.203,-2.181 -1.06,-2.047 -1.316,-1.661M3.95,6.348C4.214,6.987 3.996,7.85 4.061,8.871C3.518,8.609 3.023,8.3 2.305,8.213C2.193,7.995 2.03,7.828 1.865,7.664C1.237,7.693 1.072,8.187 0.658,8.433C0.596,8.809 0.452,9.104 0.22,9.31C-0.004,9.525 -0.01,9.958 -0.438,9.968C-0.705,9.249 -0.928,8.484 -1.535,8.103C-3.296,8.135 -4.292,8.929 -5.595,9.42C-5.321,8.487 -5.535,7.066 -4.826,6.568C-4.792,6.39 -4.938,6.378 -4.936,6.239C-4.935,5.987 -4.731,6.095 -4.717,5.799C-5.028,4.794 -6.236,4.684 -7.24,4.373C-7.009,3.765 -6.554,3.378 -6.254,2.837C-6.318,2.431 -6.434,2.201 -6.143,1.959C-6.715,1.104 -7.928,0.892 -8.667,0.204C-8.507,-0.038 -7.95,0.117 -7.789,-0.126C-7.353,-0.054 -7.347,-0.415 -6.912,-0.344C-6.545,-0.71 -5.976,-0.873 -5.705,-1.332C-5.836,-2.054 -5.625,-3.074 -5.705,-4.075C-4.706,-4.123 -3.833,-4.045 -3.071,-3.855C-2.663,-3.79 -2.533,-3.442 -2.084,-3.417C-1.33,-3.65 -1.325,-4.632 -0.768,-5.062C-0.798,-5.24 -0.664,-5.251 -0.658,-5.391C-0.48,-5.422 -0.469,-5.287 -0.328,-5.282C0.054,-4.64 0.519,-4.081 1.098,-3.636C2.459,-3.591 3.016,-4.35 4.17,-4.513C3.949,-3.6 3.831,-2.585 3.73,-1.551C3.883,-1.228 3.96,-0.83 4.17,-0.564C4.972,-0.524 5.546,-0.258 6.363,-0.235C6.352,0.339 5.831,0.403 5.815,0.972C5.458,1.2 5.366,1.694 5.047,1.959C4.985,2.46 5.023,2.424 4.937,2.947C5.044,3.426 5.501,3.553 5.705,3.934C5.855,4.334 6.26,4.476 6.363,4.921C5.414,5.252 4.41,5.528 3.95,6.348M7.79,5.47C7.752,4.666 7.236,4.341 6.803,3.934C6.597,3.299 5.964,3.089 5.705,2.508C6.301,1.969 6.67,1.205 7.022,0.423C7.309,0.161 7.77,0.074 7.681,-0.564C7.457,-0.998 6.747,-0.948 6.254,-1.113C5.848,-1.035 5.783,-1.299 5.377,-1.222C5.181,-1.355 4.738,-1.243 4.608,-1.442C4.729,-1.649 4.749,-1.96 4.828,-2.21C4.88,-2.816 4.895,-3.46 5.047,-3.965C5.114,-4.227 4.91,-4.761 5.157,-4.842C5.283,-5.298 4.927,-5.27 4.937,-5.611C3.297,-5.715 2.676,-4.802 1.427,-4.513C0.862,-4.864 0.51,-5.426 0.11,-5.94C-0.073,-6.087 0.073,-6.562 -0.109,-6.708L-0.986,-6.708C-1.12,-6.293 -1.421,-6.046 -1.644,-5.72C-1.755,-5.575 -1.827,-5.389 -1.975,-5.282C-2.138,-5.153 -2.103,-4.826 -2.413,-4.842C-2.982,-4.968 -3.628,-5.019 -4.278,-5.062C-4.871,-5.384 -5.545,-5.624 -6.254,-5.831C-6.479,-5.654 -6.507,-5.281 -6.473,-4.842C-6.648,-4.689 -6.753,-4.465 -6.802,-4.184C-6.758,-3.387 -6.906,-2.398 -6.691,-1.771C-7.357,-1.266 -8.285,-1.024 -9.105,-0.673C-9.247,-0.53 -9.247,-0.269 -9.105,-0.126C-9.385,-0.112 -9.531,0.034 -9.545,0.314C-9.491,0.844 -8.989,0.928 -8.887,1.411C-8.327,1.694 -7.727,1.934 -7.351,2.398C-7.958,3.29 -8.82,3.927 -9.215,5.032C-9.032,5.434 -8.526,5.513 -8.447,6.019C-7.846,6.039 -7.654,6.469 -7.021,6.457C-6.661,6.719 -6.091,6.771 -5.705,7.006C-6.066,7.705 -6.352,8.479 -6.582,9.31C-6.438,9.651 -6.612,9.623 -6.582,10.078C-6.371,10.3 -6.14,10.334 -5.814,10.188C-5.844,10.475 -5.774,10.66 -5.485,10.626C-4.733,10.575 -4.305,10.198 -3.84,9.859C-3.198,9.696 -2.608,9.48 -1.975,9.31C-1.777,9.735 -1.381,9.959 -1.206,10.408C-0.948,10.441 -1.002,10.788 -0.658,10.737C-0.596,11.003 -0.564,11.3 -0.219,11.285C0.373,11.146 0.44,10.481 0.879,10.188C1.181,9.724 1.437,9.211 1.865,8.871C2.197,9.197 2.85,9.203 3.292,9.42C3.671,9.699 4.077,9.952 4.719,9.968C4.779,9.811 4.889,9.701 5.047,9.639C4.912,8.714 4.987,7.579 4.828,6.677C5.365,6.336 5.927,6.021 6.584,5.799C6.901,5.604 7.567,5.759 7.79,5.47"/>
        </g>
    </g>
</svg>
