<?xml version="1.0" encoding="UTF-8" standalone="no"?>
<!DOCTYPE svg PUBLIC "-//W3C//DTD SVG 1.1//EN" "http://www.w3.org/Graphics/SVG/1.1/DTD/svg11.dtd">
<svg width="55px" height="66px" version="1.1" xmlns="http://www.w3.org/2000/svg" xmlns:xlink="http://www.w3.org/1999/xlink" xml:space="preserve" xmlns:serif="http://www.serif.com/" style="fill-rule:evenodd;clip-rule:evenodd;stroke-linejoin:round;stroke-miterlimit:2;">
    <g transform="matrix(1,0,0,1,-322.196,-155.615)">
        <g transform="matrix(1.34374,0,0,1.67222,-1425.89,9.14673)">
            <g transform="matrix(89.3028,0,0,71.7609,1298.14,115.289)">
                <path d="M0.479,-0.157C0.478,-0.146 0.474,-0.137 0.468,-0.13L0.466,-0.121L0.463,-0.114C0.46,-0.107 0.455,-0.098 0.446,-0.087C0.443,-0.082 0.436,-0.078 0.423,-0.075C0.414,-0.074 0.404,-0.072 0.395,-0.07C0.398,-0.064 0.401,-0.054 0.402,-0.041C0.403,-0.028 0.405,-0.018 0.408,-0.012C0.411,-0.003 0.414,0.009 0.418,0.026L0.415,0.03C0.415,0.031 0.417,0.033 0.42,0.036L0.417,0.04L0.421,0.041L0.42,0.042C0.419,0.044 0.42,0.046 0.423,0.048C0.424,0.069 0.429,0.099 0.437,0.14L0.435,0.146C0.427,0.148 0.418,0.149 0.408,0.15C0.399,0.153 0.385,0.154 0.368,0.153C0.364,0.146 0.364,0.14 0.369,0.135C0.373,0.135 0.379,0.134 0.386,0.133C0.393,0.132 0.399,0.131 0.402,0.131C0.398,0.108 0.396,0.092 0.397,0.083L0.396,0.082C0.382,0.083 0.361,0.087 0.334,0.092C0.337,0.098 0.34,0.107 0.341,0.118C0.344,0.135 0.345,0.144 0.346,0.145L0.35,0.149C0.349,0.153 0.345,0.157 0.336,0.16C0.331,0.159 0.323,0.159 0.312,0.16C0.301,0.162 0.294,0.163 0.289,0.162L0.284,0.154L0.285,0.148C0.292,0.146 0.301,0.143 0.313,0.14C0.313,0.13 0.313,0.115 0.312,0.096C0.296,0.096 0.28,0.099 0.265,0.105C0.266,0.115 0.269,0.13 0.272,0.15C0.269,0.155 0.259,0.158 0.243,0.161C0.228,0.163 0.219,0.162 0.216,0.158C0.215,0.154 0.216,0.148 0.219,0.141C0.226,0.14 0.233,0.139 0.24,0.137C0.241,0.13 0.24,0.121 0.238,0.108C0.221,0.109 0.207,0.108 0.198,0.106C0.197,0.116 0.199,0.129 0.204,0.146C0.199,0.154 0.195,0.158 0.19,0.157C0.181,0.161 0.173,0.163 0.165,0.163C0.149,0.163 0.141,0.158 0.141,0.149C0.141,0.14 0.15,0.136 0.168,0.136C0.166,0.125 0.167,0.112 0.171,0.097L0.168,0.093C0.161,0.085 0.149,0.075 0.132,0.064C0.121,0.055 0.116,0.045 0.116,0.034C0.116,0.017 0.127,0.008 0.148,0.005C0.145,0 0.144,-0.009 0.145,-0.022C0.12,-0.026 0.108,-0.033 0.108,-0.044C0.108,-0.048 0.11,-0.054 0.113,-0.063C0.117,-0.074 0.12,-0.082 0.121,-0.087C0.076,-0.082 0.05,-0.088 0.041,-0.104C0.034,-0.117 0.031,-0.144 0.031,-0.184C0.031,-0.264 0.04,-0.309 0.059,-0.319C0.069,-0.32 0.076,-0.318 0.081,-0.314C0.083,-0.305 0.084,-0.292 0.083,-0.275C0.082,-0.257 0.083,-0.243 0.086,-0.234C0.083,-0.22 0.085,-0.207 0.09,-0.194C0.091,-0.182 0.092,-0.173 0.094,-0.167C0.101,-0.162 0.114,-0.163 0.133,-0.168C0.135,-0.174 0.138,-0.181 0.141,-0.188C0.143,-0.195 0.144,-0.201 0.143,-0.206C0.151,-0.235 0.163,-0.261 0.179,-0.285C0.178,-0.286 0.177,-0.289 0.178,-0.292C0.18,-0.295 0.181,-0.298 0.18,-0.299C0.167,-0.302 0.16,-0.305 0.158,-0.306C0.15,-0.31 0.146,-0.316 0.145,-0.324C0.146,-0.324 0.157,-0.323 0.178,-0.322C0.178,-0.327 0.18,-0.333 0.183,-0.342C0.174,-0.349 0.169,-0.353 0.166,-0.356C0.16,-0.363 0.157,-0.369 0.157,-0.376C0.158,-0.377 0.16,-0.377 0.161,-0.377C0.17,-0.377 0.182,-0.37 0.197,-0.357C0.21,-0.362 0.222,-0.365 0.233,-0.365C0.246,-0.365 0.257,-0.361 0.264,-0.353C0.278,-0.364 0.293,-0.37 0.31,-0.37C0.321,-0.37 0.33,-0.367 0.338,-0.362C0.347,-0.367 0.361,-0.367 0.379,-0.364C0.384,-0.371 0.393,-0.378 0.406,-0.386L0.411,-0.384L0.416,-0.376L0.422,-0.375C0.423,-0.372 0.419,-0.366 0.41,-0.358C0.413,-0.355 0.418,-0.351 0.425,-0.348C0.428,-0.351 0.432,-0.355 0.437,-0.359C0.441,-0.362 0.445,-0.364 0.45,-0.363C0.451,-0.361 0.453,-0.358 0.456,-0.354C0.458,-0.349 0.461,-0.347 0.464,-0.348C0.457,-0.343 0.446,-0.336 0.431,-0.328C0.424,-0.301 0.415,-0.28 0.406,-0.266C0.408,-0.263 0.409,-0.257 0.409,-0.248C0.409,-0.213 0.404,-0.186 0.393,-0.166C0.39,-0.161 0.39,-0.156 0.392,-0.15C0.397,-0.149 0.4,-0.151 0.402,-0.157C0.434,-0.251 0.449,-0.306 0.448,-0.322L0.45,-0.322L0.458,-0.329C0.458,-0.327 0.46,-0.326 0.464,-0.326C0.467,-0.325 0.469,-0.324 0.469,-0.322L0.469,-0.317L0.475,-0.317C0.476,-0.311 0.479,-0.302 0.482,-0.289C0.483,-0.286 0.484,-0.282 0.485,-0.277C0.486,-0.272 0.485,-0.267 0.484,-0.263L0.482,-0.261L0.485,-0.259C0.486,-0.254 0.486,-0.248 0.485,-0.243L0.483,-0.242L0.485,-0.24L0.486,-0.236L0.484,-0.235L0.486,-0.228C0.486,-0.207 0.484,-0.184 0.479,-0.157ZM0.48,-0.294L0.48,-0.296L0.478,-0.297C0.478,-0.295 0.479,-0.294 0.48,-0.294ZM0.405,-0.33C0.398,-0.337 0.393,-0.34 0.388,-0.34C0.37,-0.34 0.363,-0.339 0.367,-0.338L0.364,-0.344C0.356,-0.345 0.351,-0.344 0.348,-0.341C0.343,-0.336 0.34,-0.334 0.338,-0.333C0.337,-0.33 0.336,-0.325 0.333,-0.317C0.33,-0.308 0.329,-0.302 0.329,-0.297C0.329,-0.292 0.33,-0.288 0.333,-0.284C0.345,-0.267 0.357,-0.259 0.368,-0.26C0.391,-0.275 0.404,-0.299 0.405,-0.33ZM0.456,-0.234C0.449,-0.211 0.436,-0.178 0.415,-0.133C0.413,-0.131 0.41,-0.127 0.407,-0.122C0.404,-0.12 0.401,-0.118 0.398,-0.115C0.395,-0.112 0.391,-0.111 0.388,-0.112C0.386,-0.115 0.385,-0.122 0.386,-0.131C0.375,-0.132 0.363,-0.133 0.351,-0.133C0.346,-0.125 0.343,-0.118 0.343,-0.112C0.343,-0.097 0.358,-0.089 0.388,-0.089C0.403,-0.089 0.415,-0.091 0.424,-0.094C0.443,-0.114 0.454,-0.161 0.456,-0.234ZM0.243,-0.326L0.236,-0.338C0.223,-0.34 0.212,-0.334 0.205,-0.321L0.204,-0.305C0.205,-0.298 0.21,-0.291 0.218,-0.282C0.222,-0.281 0.227,-0.282 0.232,-0.284C0.232,-0.287 0.234,-0.291 0.239,-0.294C0.244,-0.297 0.247,-0.3 0.249,-0.302C0.25,-0.303 0.251,-0.305 0.251,-0.308C0.251,-0.31 0.25,-0.313 0.247,-0.317C0.244,-0.32 0.243,-0.323 0.243,-0.326ZM0.396,0.053C0.379,0.001 0.372,-0.033 0.373,-0.048C0.376,-0.051 0.376,-0.058 0.373,-0.067C0.358,-0.068 0.345,-0.074 0.335,-0.084C0.324,-0.093 0.319,-0.105 0.319,-0.118C0.319,-0.13 0.324,-0.141 0.334,-0.152C0.342,-0.152 0.354,-0.153 0.369,-0.154L0.368,-0.169C0.37,-0.184 0.374,-0.206 0.38,-0.235C0.375,-0.232 0.37,-0.231 0.365,-0.231C0.343,-0.231 0.325,-0.246 0.311,-0.275C0.308,-0.281 0.306,-0.287 0.306,-0.293C0.306,-0.299 0.308,-0.307 0.312,-0.316C0.316,-0.328 0.319,-0.336 0.32,-0.341C0.309,-0.346 0.294,-0.343 0.277,-0.333C0.282,-0.317 0.285,-0.307 0.285,-0.303C0.285,-0.294 0.28,-0.287 0.271,-0.282C0.266,-0.279 0.259,-0.274 0.251,-0.265C0.241,-0.258 0.231,-0.254 0.221,-0.254C0.212,-0.254 0.201,-0.257 0.189,-0.264C0.185,-0.257 0.178,-0.239 0.168,-0.211C0.169,-0.206 0.168,-0.199 0.164,-0.19C0.16,-0.181 0.158,-0.175 0.157,-0.171L0.167,-0.172C0.177,-0.169 0.184,-0.16 0.189,-0.145C0.188,-0.125 0.185,-0.113 0.18,-0.108C0.17,-0.103 0.16,-0.097 0.149,-0.092L0.149,-0.089C0.146,-0.08 0.142,-0.067 0.136,-0.051C0.156,-0.053 0.179,-0.052 0.204,-0.049C0.223,-0.046 0.249,-0.045 0.28,-0.046C0.33,-0.047 0.355,-0.047 0.356,-0.047L0.36,-0.049L0.367,-0.044C0.366,-0.041 0.363,-0.04 0.36,-0.039L0.363,-0.034C0.363,-0.029 0.362,-0.025 0.36,-0.02C0.361,-0.02 0.352,-0.02 0.332,-0.02C0.333,-0.014 0.332,-0.007 0.329,0C0.33,0.002 0.331,0.003 0.334,0.003C0.336,0.002 0.337,0.003 0.338,0.004C0.335,0.006 0.33,0.009 0.324,0.013L0.327,0.018L0.33,0.024L0.326,0.024L0.326,0.025C0.312,0.027 0.28,0.028 0.231,0.029C0.181,0.03 0.149,0.029 0.136,0.028L0.136,0.042C0.151,0.043 0.164,0.05 0.175,0.063L0.174,0.064L0.18,0.068L0.179,0.069C0.188,0.078 0.2,0.083 0.216,0.083C0.227,0.083 0.245,0.08 0.27,0.074C0.293,0.069 0.308,0.067 0.316,0.069L0.316,0.068C0.319,0.066 0.322,0.067 0.326,0.07L0.327,0.067L0.331,0.069L0.333,0.066C0.336,0.065 0.337,0.066 0.337,0.068L0.341,0.07L0.346,0.068C0.346,0.067 0.347,0.067 0.348,0.067C0.349,0.068 0.35,0.068 0.351,0.068L0.356,0.064L0.36,0.067L0.362,0.063L0.363,0.064C0.364,0.063 0.366,0.063 0.368,0.062L0.368,0.059L0.371,0.063C0.374,0.062 0.379,0.061 0.385,0.06L0.383,0.06C0.382,0.057 0.387,0.055 0.396,0.053ZM0.416,0.026L0.415,0.023L0.415,0.025C0.415,0.026 0.415,0.027 0.416,0.026ZM0.395,0.058L0.393,0.056C0.391,0.057 0.392,0.058 0.395,0.059L0.395,0.058ZM0.309,-0.02C0.303,-0.021 0.294,-0.021 0.281,-0.02C0.28,-0.015 0.28,-0.009 0.281,0C0.291,0.001 0.298,0.002 0.301,0.002C0.305,0.002 0.307,0 0.308,-0.005C0.308,-0.009 0.308,-0.014 0.309,-0.02ZM0.056,-0.219C0.054,-0.208 0.054,-0.194 0.055,-0.177C0.056,-0.154 0.057,-0.141 0.058,-0.137C0.059,-0.132 0.06,-0.126 0.061,-0.119C0.069,-0.115 0.08,-0.113 0.095,-0.113C0.114,-0.113 0.133,-0.116 0.153,-0.121C0.156,-0.122 0.158,-0.126 0.158,-0.134C0.157,-0.142 0.155,-0.146 0.151,-0.147C0.146,-0.147 0.138,-0.146 0.127,-0.143C0.116,-0.14 0.108,-0.139 0.104,-0.139C0.085,-0.139 0.073,-0.149 0.068,-0.168C0.064,-0.185 0.06,-0.202 0.056,-0.219ZM0.256,-0.015L0.255,-0.02C0.247,-0.019 0.235,-0.019 0.22,-0.019C0.221,-0.016 0.222,-0.011 0.222,-0.006L0.223,-0.003C0.241,-0.004 0.252,-0.004 0.255,-0.004L0.256,-0.015ZM0.2,0C0.2,-0.007 0.199,-0.014 0.196,-0.02C0.19,-0.022 0.181,-0.024 0.169,-0.025C0.17,-0.02 0.169,-0.014 0.168,-0.005L0.17,0.002C0.177,0.001 0.187,0 0.2,0ZM0.382,-0.309C0.379,-0.294 0.374,-0.287 0.366,-0.287C0.356,-0.287 0.352,-0.296 0.355,-0.313C0.357,-0.315 0.361,-0.316 0.368,-0.315C0.375,-0.314 0.38,-0.312 0.382,-0.309ZM0.244,-0.311L0.242,-0.306C0.24,-0.306 0.238,-0.304 0.235,-0.301C0.232,-0.297 0.23,-0.295 0.227,-0.296C0.226,-0.299 0.223,-0.302 0.22,-0.306L0.219,-0.315C0.223,-0.315 0.229,-0.315 0.238,-0.316L0.244,-0.311ZM0.381,0.057C0.38,0.058 0.379,0.059 0.378,0.058L0.377,0.056C0.378,0.057 0.379,0.057 0.381,0.057ZM0.375,0.058L0.373,0.059L0.373,0.06L0.37,0.06C0.367,0.059 0.368,0.058 0.375,0.056L0.375,0.058ZM0.341,0.066C0.341,0.066 0.341,0.066 0.34,0.067L0.34,0.065L0.341,0.066ZM0.336,0.066L0.335,0.065C0.336,0.065 0.337,0.065 0.336,0.065L0.336,0.066Z" style="fill-rule:nonzero;"/>
            </g>
        </g>
    </g>
</svg>
