<?xml version="1.0" encoding="UTF-8" standalone="no"?>
<!DOCTYPE svg PUBLIC "-//W3C//DTD SVG 1.1//EN" "http://www.w3.org/Graphics/SVG/1.1/DTD/svg11.dtd">
<svg width="78px" height="37px" version="1.1" xmlns="http://www.w3.org/2000/svg" xmlns:xlink="http://www.w3.org/1999/xlink" xml:space="preserve" xmlns:serif="http://www.serif.com/" style="fill-rule:evenodd;clip-rule:evenodd;stroke-linejoin:round;stroke-miterlimit:2;">
    <g transform="matrix(1,0,0,1,-243.066,-301.822)">
        <g transform="matrix(1.34374,0,0,1.67222,-1425.89,9.14673)">
            <g transform="matrix(89.3028,0,0,71.7609,1238.18,184.925)">
                <path d="M0.689,0.049C0.69,0.051 0.689,0.053 0.686,0.055C0.683,0.056 0.682,0.057 0.682,0.058C0.682,0.058 0.682,0.058 0.683,0.059L0.686,0.06C0.682,0.063 0.676,0.068 0.668,0.075C0.598,0.079 0.549,0.078 0.52,0.072C0.513,0.071 0.498,0.071 0.477,0.072C0.477,0.072 0.476,0.077 0.475,0.087C0.474,0.096 0.472,0.106 0.469,0.117C0.468,0.12 0.467,0.123 0.466,0.127L0.462,0.143C0.473,0.14 0.488,0.14 0.505,0.142C0.523,0.144 0.537,0.148 0.546,0.153C0.54,0.152 0.537,0.153 0.536,0.156L0.543,0.16L0.543,0.161L0.534,0.161C0.53,0.161 0.528,0.163 0.528,0.166C0.507,0.164 0.477,0.164 0.436,0.166C0.437,0.16 0.437,0.156 0.435,0.154C0.436,0.147 0.437,0.137 0.438,0.124C0.411,0.123 0.377,0.123 0.334,0.125C0.281,0.128 0.247,0.13 0.231,0.13C0.228,0.13 0.222,0.129 0.213,0.126C0.206,0.125 0.2,0.125 0.195,0.126C0.182,0.125 0.164,0.122 0.141,0.115L0.138,0.115C0.138,0.116 0.136,0.119 0.132,0.126C0.127,0.132 0.125,0.137 0.125,0.141C0.119,0.145 0.108,0.147 0.093,0.148C0.077,0.148 0.066,0.146 0.061,0.141C0.05,0.146 0.044,0.143 0.043,0.134L0.047,0.126C0.055,0.121 0.073,0.12 0.102,0.125C0.105,0.122 0.108,0.116 0.111,0.109C0.115,0.104 0.118,0.097 0.121,0.09C0.123,0.082 0.125,0.077 0.126,0.074L0.123,0.067C0.117,0.069 0.112,0.07 0.108,0.069C0.108,0.069 0.099,0.07 0.08,0.071C0.077,0.066 0.075,0.061 0.075,0.057C0.076,0.054 0.085,0.05 0.1,0.047C0.113,0.043 0.123,0.041 0.128,0.041C0.127,0.036 0.126,0.033 0.125,0.03C0.118,0.029 0.109,0.027 0.1,0.023C0.099,0.02 0.098,0.016 0.098,0.01C0.099,0.007 0.102,0.006 0.107,0.006C0.112,0.005 0.115,0.005 0.116,0.004L0.13,0.005L0.136,-0.008C0.127,-0.011 0.122,-0.018 0.12,-0.03L0.125,-0.036C0.128,-0.036 0.133,-0.035 0.138,-0.033C0.143,-0.031 0.147,-0.03 0.149,-0.029L0.155,-0.038C0.15,-0.046 0.147,-0.054 0.147,-0.062C0.147,-0.075 0.154,-0.087 0.169,-0.099C0.182,-0.109 0.196,-0.119 0.21,-0.128C0.212,-0.129 0.215,-0.13 0.22,-0.133C0.224,-0.135 0.227,-0.136 0.23,-0.136C0.233,-0.136 0.235,-0.134 0.238,-0.131C0.268,-0.131 0.288,-0.121 0.298,-0.102C0.299,-0.103 0.308,-0.104 0.324,-0.106C0.324,-0.108 0.323,-0.112 0.321,-0.118C0.318,-0.124 0.317,-0.129 0.317,-0.132C0.317,-0.135 0.318,-0.137 0.321,-0.138C0.321,-0.138 0.327,-0.137 0.339,-0.134C0.35,-0.121 0.357,-0.107 0.358,-0.092C0.361,-0.089 0.362,-0.089 0.362,-0.092C0.362,-0.1 0.361,-0.112 0.36,-0.129C0.361,-0.132 0.365,-0.133 0.37,-0.131C0.378,-0.129 0.383,-0.124 0.385,-0.116C0.387,-0.107 0.389,-0.099 0.39,-0.091C0.407,-0.088 0.419,-0.085 0.425,-0.081C0.426,-0.08 0.428,-0.08 0.43,-0.08C0.433,-0.08 0.44,-0.081 0.452,-0.084C0.464,-0.086 0.474,-0.087 0.482,-0.087C0.503,-0.087 0.518,-0.08 0.528,-0.066C0.533,-0.046 0.534,-0.034 0.531,-0.029C0.609,-0.006 0.657,0.017 0.676,0.038C0.677,0.041 0.682,0.044 0.689,0.049ZM0.504,-0.054L0.499,-0.061C0.482,-0.068 0.463,-0.068 0.442,-0.063C0.44,-0.056 0.439,-0.049 0.439,-0.043C0.439,-0.026 0.45,-0.015 0.471,-0.01L0.472,-0.015C0.468,-0.018 0.468,-0.027 0.471,-0.042C0.473,-0.043 0.475,-0.047 0.477,-0.053C0.479,-0.059 0.481,-0.062 0.484,-0.061C0.487,-0.061 0.491,-0.06 0.496,-0.058C0.498,-0.059 0.501,-0.058 0.504,-0.054ZM0.626,0.047C0.608,0.042 0.582,0.031 0.547,0.012C0.542,0.007 0.533,0.002 0.522,-0.004C0.51,0.004 0.498,0.011 0.486,0.017C0.459,0.018 0.44,0.013 0.428,0.002C0.416,-0.01 0.412,-0.029 0.415,-0.056C0.411,-0.057 0.397,-0.061 0.372,-0.066C0.351,-0.07 0.34,-0.073 0.34,-0.076L0.339,-0.08C0.322,-0.08 0.31,-0.078 0.304,-0.074L0.302,-0.067C0.297,-0.061 0.29,-0.053 0.28,-0.043C0.253,-0.027 0.23,-0.019 0.211,-0.018C0.206,-0.019 0.199,-0.02 0.19,-0.021C0.183,-0.02 0.175,-0.008 0.166,0.014C0.159,0.033 0.154,0.047 0.153,0.058C0.154,0.063 0.152,0.067 0.147,0.071C0.152,0.076 0.153,0.083 0.152,0.093L0.163,0.096C0.176,0.095 0.195,0.096 0.218,0.102C0.241,0.107 0.251,0.109 0.249,0.109L0.285,0.105C0.284,0.097 0.283,0.089 0.283,0.08C0.26,0.08 0.241,0.082 0.226,0.087C0.213,0.086 0.205,0.082 0.201,0.075L0.203,0.067C0.228,0.06 0.256,0.056 0.289,0.054C0.318,0.053 0.347,0.051 0.376,0.05C0.387,0.049 0.405,0.047 0.429,0.045C0.473,0.047 0.539,0.048 0.626,0.047ZM0.442,0.077C0.423,0.076 0.409,0.077 0.399,0.079L0.401,0.085C0.399,0.092 0.399,0.097 0.4,0.1C0.423,0.101 0.434,0.102 0.435,0.102C0.436,0.096 0.439,0.088 0.442,0.077ZM0.277,-0.078L0.276,-0.086L0.264,-0.099C0.249,-0.106 0.237,-0.108 0.228,-0.105L0.231,-0.102C0.231,-0.101 0.229,-0.098 0.225,-0.093C0.224,-0.086 0.22,-0.079 0.214,-0.074C0.207,-0.069 0.2,-0.067 0.192,-0.069C0.188,-0.073 0.186,-0.078 0.185,-0.085L0.179,-0.079C0.174,-0.065 0.172,-0.057 0.173,-0.055C0.182,-0.049 0.193,-0.046 0.204,-0.046C0.217,-0.046 0.239,-0.053 0.27,-0.066C0.271,-0.071 0.273,-0.075 0.277,-0.078ZM0.378,0.1C0.378,0.099 0.378,0.092 0.377,0.081L0.355,0.08C0.353,0.087 0.352,0.094 0.353,0.101C0.361,0.1 0.369,0.1 0.378,0.1ZM0.33,0.103L0.33,0.08C0.326,0.08 0.32,0.08 0.312,0.081L0.31,0.104L0.33,0.103Z" style="fill-rule:nonzero;"/>
            </g>
        </g>
    </g>
</svg>
