<?xml version="1.0" encoding="UTF-8" standalone="no"?>
<!DOCTYPE svg PUBLIC "-//W3C//DTD SVG 1.1//EN" "http://www.w3.org/Graphics/SVG/1.1/DTD/svg11.dtd">
<svg width="69px" height="60px" version="1.1" xmlns="http://www.w3.org/2000/svg" xmlns:xlink="http://www.w3.org/1999/xlink" xml:space="preserve" xmlns:serif="http://www.serif.com/" style="fill-rule:evenodd;clip-rule:evenodd;stroke-linejoin:round;stroke-miterlimit:2;">
    <g transform="matrix(1,0,0,1,-34.4502,-19.9938)">
        <g transform="matrix(1.34374,0,0,1.67222,-1425.89,9.14673)">
            <g transform="matrix(89.3028,0,0,71.7609,1082.93,28.3737)">
                <path d="M0.611,-0.162C0.609,-0.163 0.607,-0.161 0.606,-0.158C0.605,-0.154 0.603,-0.152 0.601,-0.152L0.601,-0.15L0.597,-0.15C0.587,-0.146 0.572,-0.145 0.553,-0.146C0.549,-0.138 0.548,-0.132 0.549,-0.129C0.548,-0.121 0.548,-0.111 0.547,-0.1C0.554,-0.101 0.561,-0.1 0.568,-0.096L0.567,-0.095C0.574,-0.095 0.584,-0.092 0.598,-0.085L0.599,-0.077C0.596,-0.072 0.59,-0.069 0.582,-0.069C0.574,-0.068 0.566,-0.068 0.559,-0.068C0.556,-0.064 0.552,-0.063 0.548,-0.064C0.544,-0.065 0.542,-0.064 0.541,-0.06C0.538,-0.051 0.535,-0.038 0.53,-0.02C0.537,-0.02 0.545,-0.017 0.556,-0.012C0.566,-0.011 0.573,-0.008 0.576,-0.003C0.575,0.002 0.571,0.005 0.565,0.008C0.556,0.011 0.551,0.014 0.55,0.015C0.536,0.018 0.528,0.019 0.526,0.018C0.523,0.032 0.518,0.053 0.513,0.08C0.511,0.083 0.508,0.089 0.504,0.096L0.508,0.099C0.505,0.1 0.504,0.101 0.505,0.102L0.502,0.103C0.505,0.122 0.506,0.139 0.505,0.154C0.524,0.153 0.538,0.161 0.549,0.18C0.546,0.181 0.543,0.183 0.539,0.187C0.518,0.185 0.505,0.185 0.5,0.186C0.497,0.191 0.494,0.193 0.491,0.193C0.489,0.193 0.486,0.192 0.483,0.19C0.48,0.187 0.478,0.186 0.477,0.187L0.466,0.172C0.465,0.165 0.466,0.155 0.469,0.142C0.472,0.129 0.473,0.12 0.473,0.115L0.472,0.113C0.457,0.114 0.435,0.113 0.405,0.109C0.373,0.108 0.325,0.105 0.261,0.1C0.26,0.102 0.26,0.111 0.259,0.128C0.259,0.13 0.258,0.134 0.257,0.14C0.256,0.146 0.255,0.15 0.256,0.153L0.251,0.159C0.244,0.158 0.233,0.157 0.218,0.157C0.217,0.156 0.211,0.156 0.2,0.157C0.192,0.157 0.187,0.154 0.184,0.149C0.183,0.144 0.186,0.139 0.192,0.135C0.218,0.134 0.23,0.133 0.229,0.133C0.229,0.124 0.23,0.112 0.233,0.096C0.23,0.09 0.227,0.081 0.223,0.068C0.225,0.067 0.226,0.065 0.226,0.061L0.226,0.055L0.227,0.056L0.234,0.048C0.246,0.052 0.262,0.056 0.282,0.059C0.283,0.053 0.281,0.039 0.274,0.016C0.257,0.02 0.243,0.02 0.232,0.015C0.228,0.016 0.223,0.013 0.216,0.004C0.215,-0.001 0.214,-0.006 0.214,-0.011C0.214,-0.02 0.216,-0.031 0.221,-0.044C0.226,-0.061 0.229,-0.073 0.23,-0.078C0.207,-0.081 0.174,-0.087 0.129,-0.096C0.124,-0.097 0.11,-0.098 0.087,-0.097C0.07,-0.097 0.057,-0.1 0.048,-0.107C0.045,-0.114 0.043,-0.121 0.043,-0.128C0.043,-0.142 0.048,-0.162 0.057,-0.189C0.066,-0.216 0.07,-0.235 0.071,-0.247C0.068,-0.251 0.067,-0.256 0.069,-0.262C0.096,-0.277 0.144,-0.284 0.215,-0.284C0.277,-0.284 0.326,-0.28 0.363,-0.271C0.364,-0.275 0.367,-0.281 0.371,-0.289L0.382,-0.285C0.385,-0.282 0.388,-0.276 0.389,-0.267C0.39,-0.267 0.396,-0.266 0.407,-0.264L0.409,-0.282C0.409,-0.283 0.41,-0.285 0.411,-0.286L0.413,-0.282L0.415,-0.285L0.417,-0.282L0.421,-0.288C0.424,-0.287 0.427,-0.285 0.431,-0.282L0.436,-0.282C0.437,-0.28 0.439,-0.278 0.443,-0.275C0.445,-0.274 0.446,-0.268 0.445,-0.258L0.471,-0.257C0.472,-0.267 0.477,-0.282 0.484,-0.301L0.489,-0.296C0.491,-0.297 0.493,-0.298 0.495,-0.301C0.496,-0.304 0.498,-0.305 0.499,-0.305C0.5,-0.305 0.502,-0.304 0.505,-0.301C0.505,-0.297 0.508,-0.296 0.513,-0.299C0.515,-0.288 0.512,-0.273 0.505,-0.253C0.512,-0.253 0.524,-0.25 0.543,-0.243C0.545,-0.248 0.549,-0.255 0.556,-0.264C0.559,-0.259 0.561,-0.259 0.563,-0.263L0.564,-0.258L0.566,-0.258L0.563,-0.256L0.566,-0.251L0.574,-0.253L0.578,-0.248L0.574,-0.247L0.578,-0.242L0.582,-0.244L0.583,-0.239C0.581,-0.237 0.58,-0.234 0.579,-0.229C0.576,-0.228 0.573,-0.224 0.569,-0.219C0.567,-0.217 0.566,-0.213 0.565,-0.208C0.564,-0.203 0.561,-0.194 0.558,-0.182C0.576,-0.182 0.584,-0.182 0.583,-0.183C0.592,-0.182 0.599,-0.177 0.602,-0.169C0.601,-0.167 0.603,-0.166 0.606,-0.165C0.609,-0.164 0.611,-0.163 0.611,-0.162ZM0.57,-0.251L0.569,-0.252L0.571,-0.252L0.57,-0.251ZM0.545,-0.119L0.543,-0.119L0.544,-0.117L0.545,-0.119ZM0.461,-0.031C0.454,-0.041 0.448,-0.051 0.441,-0.061C0.432,-0.072 0.422,-0.078 0.413,-0.078C0.409,-0.078 0.405,-0.077 0.4,-0.075C0.397,-0.071 0.394,-0.065 0.391,-0.056L0.442,-0.005C0.452,-0.012 0.458,-0.021 0.461,-0.031ZM0.536,-0.212C0.534,-0.213 0.524,-0.214 0.506,-0.217C0.501,-0.216 0.488,-0.218 0.465,-0.223L0.468,-0.22L0.467,-0.219C0.46,-0.22 0.45,-0.221 0.437,-0.224C0.428,-0.224 0.413,-0.225 0.392,-0.227C0.37,-0.229 0.353,-0.23 0.342,-0.229L0.341,-0.23C0.336,-0.231 0.309,-0.234 0.262,-0.24C0.229,-0.245 0.203,-0.246 0.184,-0.245C0.178,-0.244 0.162,-0.242 0.137,-0.238C0.116,-0.235 0.101,-0.233 0.091,-0.234C0.088,-0.211 0.083,-0.176 0.075,-0.129L0.079,-0.128C0.083,-0.129 0.089,-0.129 0.096,-0.129C0.122,-0.129 0.151,-0.126 0.184,-0.121C0.221,-0.115 0.243,-0.108 0.248,-0.1C0.255,-0.099 0.258,-0.093 0.258,-0.081C0.258,-0.066 0.253,-0.044 0.243,-0.013L0.244,-0.012C0.275,-0.017 0.296,-0.021 0.308,-0.024C0.341,-0.032 0.358,-0.041 0.359,-0.051C0.357,-0.052 0.356,-0.055 0.356,-0.059C0.356,-0.062 0.355,-0.065 0.354,-0.066C0.355,-0.07 0.357,-0.072 0.359,-0.072C0.36,-0.072 0.362,-0.072 0.365,-0.071C0.367,-0.07 0.368,-0.069 0.369,-0.069C0.372,-0.069 0.373,-0.07 0.374,-0.073C0.385,-0.095 0.396,-0.106 0.409,-0.106C0.414,-0.106 0.419,-0.105 0.426,-0.104L0.427,-0.103C0.439,-0.102 0.452,-0.092 0.468,-0.075C0.483,-0.057 0.49,-0.041 0.49,-0.027C0.49,-0.024 0.49,-0.022 0.489,-0.019L0.483,-0.015L0.484,-0.014C0.466,0.013 0.435,0.038 0.392,0.059C0.39,0.061 0.387,0.062 0.382,0.062C0.384,0.063 0.384,0.064 0.381,0.065C0.38,0.064 0.378,0.064 0.376,0.065C0.374,0.067 0.372,0.067 0.371,0.066L0.373,0.069C0.383,0.071 0.402,0.073 0.43,0.074C0.454,0.075 0.473,0.078 0.486,0.082C0.489,0.073 0.491,0.06 0.494,0.042C0.498,0.017 0.503,-0.019 0.508,-0.068C0.508,-0.073 0.51,-0.077 0.513,-0.082C0.516,-0.086 0.519,-0.089 0.52,-0.09C0.521,-0.091 0.522,-0.093 0.523,-0.095C0.524,-0.097 0.524,-0.1 0.524,-0.103C0.523,-0.106 0.523,-0.108 0.523,-0.109L0.528,-0.115L0.528,-0.111L0.53,-0.117L0.517,-0.131C0.53,-0.179 0.536,-0.206 0.536,-0.212ZM0.414,0.018L0.414,0.016C0.398,-0.001 0.385,-0.017 0.375,-0.031C0.37,-0.022 0.363,-0.015 0.356,-0.01C0.362,-0.001 0.371,0.012 0.384,0.03C0.385,0.032 0.384,0.034 0.382,0.035C0.393,0.03 0.403,0.025 0.414,0.018ZM0.377,0.037L0.367,0.036L0.367,0.04L0.369,0.042C0.371,0.041 0.374,0.04 0.377,0.037ZM0.369,0.067L0.367,0.067L0.368,0.068C0.367,0.067 0.365,0.068 0.363,0.07C0.366,0.071 0.368,0.07 0.368,0.068L0.369,0.069L0.369,0.067ZM0.356,0.048C0.351,0.042 0.343,0.027 0.332,0.004C0.319,0.008 0.308,0.011 0.3,0.012C0.303,0.023 0.309,0.039 0.317,0.06C0.322,0.061 0.329,0.059 0.336,0.056C0.346,0.051 0.353,0.049 0.356,0.048ZM0.47,-0.174C0.469,-0.173 0.468,-0.172 0.465,-0.172L0.466,-0.168L0.465,-0.169L0.463,-0.166L0.459,-0.167C0.458,-0.166 0.458,-0.165 0.459,-0.164C0.455,-0.165 0.452,-0.164 0.451,-0.161L0.449,-0.16L0.45,-0.159C0.439,-0.151 0.42,-0.144 0.393,-0.138C0.389,-0.139 0.384,-0.142 0.379,-0.147C0.38,-0.154 0.387,-0.162 0.4,-0.173C0.412,-0.184 0.422,-0.189 0.431,-0.189C0.434,-0.189 0.437,-0.188 0.439,-0.186L0.441,-0.186C0.444,-0.186 0.447,-0.185 0.452,-0.184L0.451,-0.182L0.456,-0.181L0.454,-0.18L0.457,-0.179L0.459,-0.173C0.464,-0.176 0.467,-0.177 0.468,-0.174L0.47,-0.174ZM0.339,-0.153C0.336,-0.154 0.335,-0.155 0.336,-0.156C0.338,-0.155 0.339,-0.154 0.339,-0.153ZM0.337,-0.159L0.334,-0.157L0.331,-0.161L0.327,-0.16C0.33,-0.16 0.33,-0.159 0.328,-0.157C0.325,-0.154 0.325,-0.153 0.326,-0.152L0.322,-0.152L0.324,-0.146L0.316,-0.147C0.313,-0.152 0.311,-0.154 0.308,-0.153C0.303,-0.157 0.295,-0.169 0.284,-0.189C0.283,-0.199 0.285,-0.204 0.29,-0.204C0.295,-0.204 0.303,-0.2 0.313,-0.191C0.318,-0.186 0.323,-0.18 0.328,-0.175C0.331,-0.172 0.334,-0.167 0.337,-0.159Z" style="fill-rule:nonzero;"/>
            </g>
        </g>
    </g>
</svg>
