<?xml version="1.0" encoding="UTF-8" standalone="no"?>
<!DOCTYPE svg PUBLIC "-//W3C//DTD SVG 1.1//EN" "http://www.w3.org/Graphics/SVG/1.1/DTD/svg11.dtd">
<svg width="45px" height="113px" version="1.1" xmlns="http://www.w3.org/2000/svg" xmlns:xlink="http://www.w3.org/1999/xlink" xml:space="preserve" xmlns:serif="http://www.serif.com/" style="fill-rule:evenodd;clip-rule:evenodd;stroke-linejoin:round;stroke-miterlimit:2;">
    <g transform="matrix(1,0,0,1,-129.826,-16.1505)">
        <g transform="matrix(1.34374,0,0,1.67222,-1425.89,9.14673)">
            <g transform="matrix(89.3028,0,0,71.7609,1153.37,58.009)">
                <path d="M0.42,-0.105C0.417,-0.105 0.414,-0.103 0.41,-0.098L0.404,-0.096C0.388,-0.097 0.364,-0.096 0.331,-0.095C0.331,-0.086 0.331,-0.075 0.332,-0.061C0.377,-0.06 0.402,-0.052 0.408,-0.039C0.407,-0.037 0.408,-0.034 0.41,-0.031C0.407,-0.029 0.403,-0.028 0.398,-0.028C0.391,-0.028 0.38,-0.03 0.364,-0.033C0.348,-0.036 0.338,-0.038 0.335,-0.038L0.333,-0.036C0.334,-0.032 0.335,-0.025 0.334,-0.016C0.333,-0.006 0.335,0.001 0.338,0.006C0.336,0.023 0.333,0.048 0.33,0.081C0.345,0.09 0.352,0.104 0.35,0.125C0.356,0.14 0.358,0.152 0.355,0.162C0.352,0.162 0.358,0.162 0.372,0.161C0.379,0.161 0.384,0.164 0.385,0.169C0.384,0.174 0.38,0.18 0.375,0.187C0.366,0.188 0.353,0.189 0.336,0.19C0.333,0.187 0.33,0.181 0.327,0.174C0.327,0.153 0.326,0.13 0.323,0.107C0.322,0.112 0.318,0.12 0.311,0.129C0.296,0.139 0.279,0.144 0.258,0.144C0.23,0.144 0.211,0.134 0.2,0.115C0.19,0.118 0.185,0.125 0.185,0.137L0.187,0.167C0.187,0.175 0.185,0.181 0.181,0.184L0.178,0.189C0.179,0.189 0.172,0.189 0.159,0.189C0.153,0.192 0.143,0.188 0.13,0.179C0.132,0.174 0.142,0.168 0.159,0.162C0.156,0.135 0.165,0.114 0.185,0.099C0.174,0.076 0.168,0.062 0.166,0.057C0.16,0.041 0.157,0.026 0.156,0.013C0.155,0.005 0.153,-0.006 0.15,-0.021C0.148,-0.02 0.138,-0.013 0.119,-0.002C0.107,0.006 0.096,0.01 0.086,0.011C0.084,0.01 0.083,0.009 0.083,0.007C0.083,0 0.099,-0.017 0.13,-0.042C0.14,-0.051 0.145,-0.055 0.145,-0.055C0.145,-0.051 0.141,-0.062 0.134,-0.088C0.119,-0.084 0.095,-0.078 0.063,-0.07C0.06,-0.07 0.055,-0.072 0.049,-0.075C0.049,-0.077 0.053,-0.082 0.061,-0.09C0.076,-0.096 0.1,-0.104 0.133,-0.113L0.134,-0.114L0.133,-0.133C0.118,-0.134 0.097,-0.137 0.068,-0.142L0.068,-0.151C0.081,-0.159 0.102,-0.16 0.131,-0.155L0.132,-0.156C0.13,-0.165 0.128,-0.178 0.126,-0.195C0.088,-0.196 0.069,-0.211 0.069,-0.24C0.069,-0.261 0.076,-0.273 0.089,-0.276C0.094,-0.279 0.101,-0.285 0.111,-0.293L0.11,-0.295C0.113,-0.316 0.113,-0.332 0.11,-0.343C0.104,-0.344 0.098,-0.344 0.091,-0.345C0.08,-0.347 0.075,-0.351 0.075,-0.356C0.075,-0.358 0.075,-0.36 0.076,-0.361C0.083,-0.364 0.093,-0.368 0.106,-0.374C0.103,-0.385 0.102,-0.402 0.103,-0.425C0.07,-0.441 0.053,-0.458 0.053,-0.477C0.053,-0.49 0.06,-0.504 0.075,-0.519C0.078,-0.52 0.083,-0.524 0.088,-0.531C0.087,-0.567 0.087,-0.586 0.087,-0.587C0.088,-0.592 0.089,-0.598 0.092,-0.607C0.085,-0.612 0.079,-0.616 0.072,-0.622C0.065,-0.627 0.061,-0.632 0.059,-0.639C0.06,-0.642 0.061,-0.644 0.064,-0.644C0.065,-0.644 0.068,-0.643 0.072,-0.642C0.076,-0.64 0.079,-0.639 0.081,-0.639L0.1,-0.628C0.115,-0.647 0.124,-0.657 0.126,-0.66C0.125,-0.661 0.12,-0.669 0.111,-0.684C0.105,-0.693 0.098,-0.7 0.091,-0.703C0.09,-0.706 0.09,-0.709 0.092,-0.714C0.094,-0.718 0.095,-0.721 0.096,-0.723C0.097,-0.724 0.098,-0.725 0.099,-0.725C0.101,-0.725 0.104,-0.724 0.108,-0.721C0.111,-0.717 0.114,-0.716 0.116,-0.716C0.117,-0.713 0.121,-0.711 0.127,-0.71C0.132,-0.703 0.14,-0.692 0.151,-0.679C0.158,-0.683 0.168,-0.687 0.183,-0.691C0.184,-0.696 0.183,-0.705 0.18,-0.717C0.178,-0.728 0.178,-0.736 0.18,-0.742L0.189,-0.75C0.191,-0.745 0.193,-0.743 0.196,-0.744C0.199,-0.727 0.203,-0.71 0.208,-0.692C0.221,-0.693 0.232,-0.691 0.243,-0.686C0.246,-0.714 0.254,-0.734 0.267,-0.747L0.274,-0.749C0.278,-0.744 0.28,-0.738 0.28,-0.729C0.28,-0.716 0.276,-0.699 0.268,-0.679C0.275,-0.678 0.281,-0.676 0.286,-0.675C0.29,-0.673 0.292,-0.672 0.293,-0.672C0.294,-0.672 0.304,-0.677 0.325,-0.688L0.33,-0.684C0.33,-0.681 0.327,-0.676 0.322,-0.669L0.325,-0.664C0.323,-0.66 0.32,-0.657 0.315,-0.654C0.308,-0.651 0.305,-0.648 0.305,-0.646C0.304,-0.644 0.303,-0.642 0.3,-0.64C0.297,-0.637 0.296,-0.635 0.296,-0.634C0.294,-0.633 0.292,-0.628 0.289,-0.619C0.305,-0.62 0.315,-0.619 0.32,-0.615L0.323,-0.609L0.317,-0.604L0.318,-0.6C0.312,-0.599 0.302,-0.598 0.289,-0.599C0.288,-0.593 0.289,-0.585 0.291,-0.574C0.293,-0.561 0.294,-0.552 0.294,-0.549C0.322,-0.531 0.336,-0.512 0.336,-0.493C0.336,-0.485 0.334,-0.477 0.33,-0.468C0.328,-0.465 0.326,-0.461 0.323,-0.454C0.316,-0.449 0.312,-0.441 0.313,-0.43C0.313,-0.413 0.313,-0.404 0.312,-0.401C0.311,-0.397 0.311,-0.391 0.312,-0.383C0.311,-0.374 0.309,-0.36 0.304,-0.342C0.303,-0.336 0.303,-0.327 0.305,-0.316C0.304,-0.314 0.304,-0.312 0.304,-0.31C0.304,-0.307 0.306,-0.301 0.309,-0.294C0.312,-0.286 0.313,-0.28 0.313,-0.276C0.311,-0.237 0.311,-0.205 0.314,-0.179L0.319,-0.177C0.35,-0.192 0.369,-0.199 0.378,-0.199C0.395,-0.199 0.4,-0.195 0.394,-0.188C0.393,-0.185 0.367,-0.173 0.317,-0.15C0.318,-0.143 0.32,-0.132 0.324,-0.118C0.344,-0.12 0.367,-0.121 0.393,-0.12C0.395,-0.12 0.399,-0.119 0.404,-0.118C0.409,-0.116 0.412,-0.115 0.415,-0.115C0.418,-0.114 0.417,-0.112 0.414,-0.109L0.42,-0.105ZM0.252,-0.516C0.248,-0.513 0.243,-0.509 0.238,-0.502C0.238,-0.499 0.237,-0.496 0.235,-0.491C0.232,-0.486 0.231,-0.482 0.231,-0.479C0.231,-0.472 0.236,-0.464 0.247,-0.458C0.257,-0.451 0.265,-0.447 0.272,-0.447C0.277,-0.447 0.281,-0.449 0.283,-0.452C0.289,-0.459 0.295,-0.466 0.301,-0.473C0.31,-0.484 0.315,-0.492 0.315,-0.498C0.315,-0.505 0.305,-0.513 0.285,-0.522C0.283,-0.523 0.281,-0.524 0.278,-0.524C0.275,-0.524 0.27,-0.523 0.265,-0.52C0.259,-0.517 0.255,-0.516 0.252,-0.516ZM0.283,-0.419C0.279,-0.418 0.266,-0.42 0.245,-0.425C0.219,-0.443 0.206,-0.466 0.206,-0.493C0.206,-0.528 0.227,-0.549 0.268,-0.554C0.26,-0.567 0.256,-0.584 0.256,-0.603C0.256,-0.62 0.26,-0.635 0.267,-0.648C0.261,-0.652 0.257,-0.654 0.254,-0.654C0.253,-0.654 0.251,-0.653 0.249,-0.652C0.246,-0.65 0.243,-0.649 0.24,-0.65C0.239,-0.651 0.237,-0.655 0.234,-0.662C0.227,-0.667 0.219,-0.669 0.209,-0.669C0.194,-0.669 0.179,-0.665 0.163,-0.657C0.158,-0.646 0.152,-0.641 0.143,-0.642C0.131,-0.63 0.123,-0.618 0.119,-0.605C0.11,-0.594 0.107,-0.571 0.111,-0.537C0.144,-0.539 0.16,-0.525 0.16,-0.494L0.158,-0.45C0.155,-0.447 0.147,-0.44 0.133,-0.431C0.131,-0.429 0.131,-0.418 0.132,-0.397C0.133,-0.393 0.134,-0.387 0.137,-0.379C0.152,-0.381 0.159,-0.373 0.16,-0.354C0.158,-0.351 0.155,-0.349 0.151,-0.348C0.145,-0.347 0.141,-0.346 0.14,-0.345C0.141,-0.339 0.142,-0.326 0.142,-0.305L0.146,-0.305C0.179,-0.308 0.197,-0.309 0.201,-0.309C0.227,-0.309 0.254,-0.292 0.283,-0.259C0.285,-0.266 0.285,-0.275 0.283,-0.287C0.28,-0.3 0.279,-0.309 0.28,-0.315C0.277,-0.329 0.277,-0.346 0.279,-0.367C0.282,-0.399 0.283,-0.416 0.283,-0.419ZM0.109,-0.509L0.102,-0.514C0.089,-0.502 0.083,-0.491 0.083,-0.48C0.083,-0.463 0.093,-0.454 0.113,-0.454C0.12,-0.454 0.126,-0.456 0.13,-0.459C0.133,-0.471 0.135,-0.481 0.135,-0.49C0.135,-0.505 0.13,-0.512 0.12,-0.512C0.117,-0.512 0.114,-0.511 0.109,-0.509ZM0.275,-0.23C0.268,-0.239 0.256,-0.25 0.24,-0.264C0.237,-0.259 0.235,-0.252 0.232,-0.242C0.249,-0.235 0.262,-0.226 0.271,-0.215C0.272,-0.218 0.273,-0.223 0.275,-0.23ZM0.213,-0.28C0.206,-0.282 0.196,-0.283 0.183,-0.284C0.169,-0.285 0.16,-0.283 0.155,-0.28C0.154,-0.275 0.155,-0.268 0.156,-0.258C0.167,-0.258 0.182,-0.257 0.203,-0.254L0.213,-0.28ZM0.26,-0.194C0.252,-0.201 0.24,-0.209 0.223,-0.218C0.222,-0.214 0.218,-0.21 0.213,-0.206C0.215,-0.203 0.213,-0.201 0.208,-0.2C0.209,-0.199 0.215,-0.197 0.226,-0.192C0.233,-0.189 0.24,-0.187 0.245,-0.187C0.251,-0.187 0.256,-0.189 0.26,-0.194ZM0.195,-0.23C0.186,-0.231 0.173,-0.232 0.155,-0.233L0.153,-0.232C0.152,-0.229 0.151,-0.226 0.152,-0.221C0.164,-0.22 0.177,-0.215 0.191,-0.208C0.191,-0.208 0.192,-0.215 0.195,-0.23ZM0.126,-0.273C0.119,-0.27 0.11,-0.264 0.099,-0.253C0.104,-0.255 0.113,-0.257 0.124,-0.259C0.126,-0.267 0.127,-0.272 0.126,-0.273ZM0.122,-0.222L0.121,-0.238C0.116,-0.237 0.108,-0.236 0.099,-0.233C0.101,-0.222 0.109,-0.219 0.122,-0.222ZM0.306,0.03C0.308,0.025 0.308,0.019 0.307,0.011C0.306,0 0.305,-0.007 0.305,-0.01C0.304,-0.017 0.302,-0.026 0.297,-0.039C0.3,-0.059 0.3,-0.075 0.296,-0.088L0.283,-0.085L0.278,-0.093C0.279,-0.096 0.284,-0.101 0.294,-0.109C0.292,-0.127 0.289,-0.154 0.285,-0.191C0.268,-0.172 0.252,-0.162 0.237,-0.162C0.228,-0.162 0.215,-0.167 0.198,-0.177C0.179,-0.187 0.163,-0.193 0.151,-0.194C0.151,-0.191 0.153,-0.185 0.156,-0.176C0.159,-0.167 0.16,-0.159 0.16,-0.154C0.163,-0.153 0.166,-0.152 0.171,-0.15L0.167,-0.143L0.175,-0.138L0.165,-0.135L0.163,-0.131L0.164,-0.116L0.175,-0.114L0.17,-0.108C0.171,-0.105 0.175,-0.104 0.18,-0.105C0.177,-0.104 0.174,-0.103 0.17,-0.101C0.166,-0.098 0.164,-0.094 0.164,-0.088C0.164,-0.083 0.166,-0.077 0.169,-0.071C0.172,-0.064 0.175,-0.062 0.176,-0.063L0.175,-0.056C0.175,-0.055 0.178,-0.054 0.184,-0.052L0.179,-0.046C0.187,-0.029 0.19,-0.013 0.187,0.002C0.189,0.007 0.192,0.02 0.195,0.041C0.198,0.058 0.202,0.07 0.209,0.078L0.208,0.079C0.21,0.086 0.215,0.092 0.224,0.099C0.235,0.108 0.242,0.113 0.244,0.115C0.253,0.116 0.264,0.115 0.278,0.111C0.285,0.113 0.289,0.111 0.29,0.105C0.292,0.096 0.294,0.092 0.296,0.091C0.303,0.074 0.307,0.054 0.306,0.03ZM0.281,-0.482C0.279,-0.469 0.276,-0.462 0.271,-0.462C0.268,-0.462 0.263,-0.466 0.258,-0.475C0.254,-0.481 0.25,-0.487 0.247,-0.493C0.248,-0.498 0.251,-0.5 0.257,-0.5C0.262,-0.499 0.266,-0.5 0.267,-0.501C0.273,-0.499 0.278,-0.493 0.281,-0.482ZM0.114,-0.467C0.111,-0.467 0.107,-0.469 0.103,-0.473C0.098,-0.477 0.095,-0.479 0.094,-0.48C0.091,-0.489 0.095,-0.493 0.106,-0.493C0.119,-0.493 0.126,-0.489 0.126,-0.481C0.126,-0.476 0.122,-0.472 0.114,-0.467Z" style="fill-rule:nonzero;"/>
            </g>
        </g>
    </g>
</svg>
