<?xml version="1.0" encoding="UTF-8" standalone="no"?>
<!DOCTYPE svg PUBLIC "-//W3C//DTD SVG 1.1//EN" "http://www.w3.org/Graphics/SVG/1.1/DTD/svg11.dtd">
<svg width="52px" height="74px" version="1.1" xmlns="http://www.w3.org/2000/svg" xmlns:xlink="http://www.w3.org/1999/xlink" xml:space="preserve" xmlns:serif="http://www.serif.com/" style="fill-rule:evenodd;clip-rule:evenodd;stroke-linejoin:round;stroke-miterlimit:2;">
    <g transform="matrix(1,0,0,1,-484.427,-277.146)">
        <g transform="matrix(1.34374,0,0,1.67222,-1425.89,9.14673)">
            <g transform="matrix(89.3028,0,0,71.7609,1418.51,191.482)">
                <path d="M0.461,-0.153C0.45,-0.15 0.422,-0.144 0.376,-0.137L0.376,-0.124C0.39,-0.125 0.408,-0.123 0.429,-0.118L0.427,-0.116L0.433,-0.112L0.428,-0.107L0.436,-0.1C0.427,-0.093 0.406,-0.094 0.373,-0.101L0.371,-0.1C0.373,-0.087 0.374,-0.067 0.374,-0.04C0.368,-0.009 0.365,0.015 0.365,0.031C0.366,0.034 0.365,0.038 0.364,0.043C0.364,0.046 0.365,0.058 0.368,0.079L0.369,0.081C0.37,0.087 0.37,0.099 0.369,0.117C0.368,0.136 0.367,0.148 0.366,0.152L0.367,0.156C0.376,0.156 0.388,0.158 0.402,0.162L0.409,0.163C0.406,0.164 0.405,0.166 0.405,0.17L0.403,0.174L0.406,0.175C0.401,0.179 0.391,0.181 0.377,0.181C0.353,0.181 0.338,0.177 0.333,0.17C0.333,0.163 0.334,0.159 0.336,0.156C0.334,0.137 0.334,0.12 0.336,0.107L0.335,0.106L0.145,0.098C0.145,0.104 0.146,0.113 0.147,0.124C0.148,0.135 0.149,0.142 0.149,0.147C0.149,0.147 0.152,0.15 0.159,0.156L0.152,0.161C0.151,0.168 0.14,0.171 0.118,0.171C0.101,0.171 0.092,0.165 0.089,0.154C0.094,0.15 0.106,0.147 0.124,0.145C0.124,0.13 0.123,0.112 0.12,0.091C0.118,0.08 0.117,0.053 0.118,0.011L0.114,0.001C0.109,0.002 0.104,0.001 0.097,-0.002C0.097,-0.005 0.108,-0.01 0.13,-0.017C0.129,-0.018 0.128,-0.033 0.127,-0.061C0.127,-0.064 0.125,-0.066 0.121,-0.066C0.117,-0.066 0.115,-0.066 0.114,-0.067C0.111,-0.067 0.103,-0.07 0.092,-0.076C0.096,-0.081 0.103,-0.085 0.112,-0.086L0.114,-0.107C0.1,-0.104 0.079,-0.1 0.05,-0.095C0.047,-0.095 0.042,-0.096 0.035,-0.098C0.044,-0.115 0.07,-0.126 0.111,-0.131L0.118,-0.13L0.119,-0.136C0.117,-0.137 0.105,-0.138 0.083,-0.14C0.067,-0.141 0.056,-0.145 0.05,-0.151C0.055,-0.153 0.063,-0.156 0.073,-0.161L0.121,-0.158L0.124,-0.18C0.103,-0.185 0.093,-0.196 0.093,-0.212C0.093,-0.216 0.095,-0.228 0.098,-0.247C0.105,-0.258 0.119,-0.262 0.139,-0.26C0.141,-0.263 0.149,-0.292 0.164,-0.345C0.175,-0.384 0.189,-0.41 0.207,-0.423C0.21,-0.423 0.216,-0.425 0.223,-0.429C0.23,-0.433 0.236,-0.435 0.24,-0.435C0.243,-0.435 0.245,-0.434 0.248,-0.433C0.263,-0.427 0.285,-0.402 0.312,-0.359C0.338,-0.315 0.351,-0.286 0.349,-0.271L0.35,-0.27C0.387,-0.275 0.406,-0.262 0.406,-0.232C0.406,-0.222 0.403,-0.213 0.398,-0.204C0.393,-0.195 0.386,-0.189 0.379,-0.188C0.376,-0.185 0.375,-0.181 0.376,-0.175C0.377,-0.168 0.377,-0.164 0.376,-0.161C0.382,-0.162 0.394,-0.164 0.413,-0.169C0.428,-0.172 0.441,-0.174 0.451,-0.173L0.45,-0.167C0.453,-0.168 0.455,-0.169 0.456,-0.168L0.453,-0.161C0.454,-0.158 0.456,-0.156 0.461,-0.153ZM0.377,-0.238L0.373,-0.243L0.371,-0.243C0.37,-0.244 0.362,-0.245 0.349,-0.245C0.336,-0.239 0.329,-0.229 0.329,-0.215C0.329,-0.21 0.331,-0.207 0.336,-0.205C0.34,-0.203 0.345,-0.202 0.35,-0.203L0.35,-0.204C0.367,-0.211 0.376,-0.217 0.376,-0.223L0.376,-0.238L0.377,-0.238ZM0.35,-0.176C0.335,-0.174 0.324,-0.177 0.315,-0.185C0.306,-0.193 0.301,-0.203 0.301,-0.215C0.301,-0.229 0.307,-0.241 0.32,-0.251C0.321,-0.254 0.323,-0.257 0.326,-0.262C0.319,-0.271 0.314,-0.285 0.309,-0.305C0.304,-0.324 0.299,-0.338 0.294,-0.345C0.287,-0.357 0.279,-0.369 0.272,-0.381C0.261,-0.399 0.252,-0.409 0.247,-0.41C0.24,-0.411 0.231,-0.409 0.218,-0.405C0.208,-0.397 0.196,-0.373 0.181,-0.333C0.168,-0.296 0.16,-0.27 0.159,-0.253C0.164,-0.248 0.168,-0.244 0.173,-0.24C0.18,-0.233 0.184,-0.226 0.184,-0.221C0.184,-0.216 0.18,-0.212 0.172,-0.209C0.167,-0.202 0.159,-0.192 0.146,-0.181C0.143,-0.167 0.141,-0.137 0.142,-0.091C0.177,-0.094 0.22,-0.094 0.269,-0.093L0.274,-0.093C0.275,-0.092 0.277,-0.089 0.28,-0.083C0.283,-0.08 0.284,-0.076 0.283,-0.073C0.286,-0.064 0.288,-0.056 0.288,-0.049C0.288,-0.032 0.28,-0.016 0.264,-0.002C0.249,0.003 0.228,0.005 0.203,0.004C0.166,0.002 0.145,0.001 0.14,0.002C0.137,0.012 0.137,0.027 0.139,0.048C0.141,0.051 0.141,0.056 0.14,0.061C0.139,0.067 0.138,0.071 0.139,0.074C0.192,0.075 0.254,0.076 0.325,0.077C0.33,0.077 0.334,0.077 0.337,0.078C0.336,0.063 0.339,0.024 0.346,-0.039C0.344,-0.055 0.343,-0.078 0.343,-0.109C0.343,-0.109 0.342,-0.11 0.339,-0.112C0.335,-0.113 0.334,-0.115 0.334,-0.118C0.337,-0.12 0.34,-0.122 0.344,-0.123L0.346,-0.133C0.341,-0.133 0.334,-0.135 0.327,-0.14C0.328,-0.144 0.33,-0.147 0.335,-0.149C0.34,-0.15 0.344,-0.152 0.349,-0.153L0.35,-0.176ZM0.156,-0.226C0.151,-0.237 0.138,-0.242 0.119,-0.239C0.112,-0.232 0.109,-0.226 0.109,-0.22C0.109,-0.21 0.115,-0.205 0.126,-0.205C0.139,-0.205 0.149,-0.212 0.156,-0.226ZM0.259,-0.068C0.255,-0.067 0.25,-0.065 0.244,-0.061C0.241,-0.036 0.239,-0.024 0.239,-0.026C0.256,-0.028 0.265,-0.036 0.265,-0.051C0.265,-0.057 0.263,-0.063 0.259,-0.068ZM0.221,-0.063C0.217,-0.062 0.209,-0.061 0.197,-0.06C0.194,-0.045 0.193,-0.034 0.194,-0.026L0.218,-0.025C0.218,-0.034 0.219,-0.046 0.221,-0.063ZM0.169,-0.059L0.149,-0.063C0.151,-0.05 0.152,-0.038 0.151,-0.025C0.151,-0.025 0.156,-0.025 0.167,-0.026L0.168,-0.028C0.168,-0.029 0.168,-0.039 0.169,-0.059ZM0.365,-0.223C0.363,-0.221 0.36,-0.218 0.357,-0.215C0.354,-0.216 0.35,-0.216 0.344,-0.216L0.345,-0.225C0.344,-0.228 0.345,-0.231 0.348,-0.236C0.354,-0.236 0.36,-0.232 0.365,-0.223ZM0.244,-0.273C0.248,-0.272 0.255,-0.27 0.264,-0.266C0.281,-0.254 0.289,-0.24 0.289,-0.224C0.289,-0.211 0.284,-0.2 0.273,-0.19C0.262,-0.179 0.249,-0.173 0.234,-0.17C0.221,-0.168 0.21,-0.172 0.2,-0.183C0.19,-0.194 0.185,-0.206 0.185,-0.22C0.185,-0.248 0.205,-0.266 0.244,-0.273ZM0.14,-0.219C0.136,-0.214 0.132,-0.211 0.128,-0.211C0.123,-0.211 0.121,-0.214 0.121,-0.22C0.121,-0.225 0.123,-0.228 0.126,-0.229C0.129,-0.23 0.131,-0.229 0.134,-0.226C0.136,-0.223 0.138,-0.221 0.14,-0.219ZM0.255,-0.243L0.254,-0.243L0.251,-0.249C0.24,-0.25 0.23,-0.248 0.222,-0.243C0.213,-0.238 0.209,-0.231 0.209,-0.223C0.209,-0.215 0.213,-0.207 0.221,-0.2C0.226,-0.197 0.234,-0.199 0.244,-0.204C0.253,-0.209 0.259,-0.215 0.261,-0.22C0.262,-0.223 0.26,-0.23 0.255,-0.243ZM0.246,-0.225L0.244,-0.22L0.234,-0.213C0.233,-0.214 0.229,-0.214 0.224,-0.214L0.224,-0.23L0.229,-0.231C0.23,-0.234 0.231,-0.236 0.233,-0.236C0.234,-0.236 0.238,-0.232 0.246,-0.225Z" style="fill-rule:nonzero;"/>
            </g>
        </g>
    </g>
</svg>
