<?xml version="1.0" encoding="UTF-8" standalone="no"?>
<!DOCTYPE svg PUBLIC "-//W3C//DTD SVG 1.1//EN" "http://www.w3.org/Graphics/SVG/1.1/DTD/svg11.dtd">
<svg width="97px" height="45px" version="1.1" xmlns="http://www.w3.org/2000/svg" xmlns:xlink="http://www.w3.org/1999/xlink" xml:space="preserve" xmlns:serif="http://www.serif.com/" style="fill-rule:evenodd;clip-rule:evenodd;stroke-linejoin:round;stroke-miterlimit:2;">
    <g transform="matrix(1,0,0,1,-421.861,-27.631)">
        <g transform="matrix(1.34374,0,0,1.67222,-1425.89,9.14673)">
            <g transform="matrix(89.3028,0,0,71.7609,1370.25,26.6258)">
                <path d="M0.852,0.038C0.847,0.048 0.844,0.058 0.841,0.067C0.838,0.071 0.835,0.075 0.832,0.08C0.829,0.085 0.824,0.087 0.819,0.087L0.818,0.098L0.819,0.101L0.812,0.097L0.811,0.1L0.807,0.095L0.804,0.099C0.803,0.096 0.801,0.094 0.797,0.095C0.791,0.096 0.787,0.097 0.786,0.096C0.771,0.096 0.754,0.088 0.735,0.071L0.734,0.074C0.734,0.068 0.732,0.066 0.729,0.067L0.727,0.071C0.726,0.068 0.725,0.064 0.726,0.059C0.723,0.052 0.719,0.042 0.714,0.029L0.712,0.029C0.703,0.082 0.676,0.119 0.629,0.138C0.626,0.139 0.622,0.14 0.615,0.14C0.614,0.143 0.611,0.144 0.607,0.145C0.603,0.145 0.6,0.146 0.599,0.147C0.59,0.144 0.577,0.143 0.559,0.142C0.554,0.141 0.545,0.138 0.534,0.134C0.517,0.125 0.502,0.112 0.487,0.095L0.478,0.092C0.479,0.09 0.475,0.07 0.465,0.031C0.463,0.03 0.462,0.028 0.463,0.025C0.464,0.02 0.464,0.018 0.465,0.017C0.466,0.016 0.466,0.012 0.465,0.007C0.465,0.001 0.463,-0.001 0.46,0C0.457,0.009 0.453,0.019 0.447,0.032C0.447,0.038 0.445,0.045 0.44,0.054C0.435,0.063 0.433,0.069 0.432,0.074C0.41,0.103 0.392,0.12 0.379,0.125C0.359,0.134 0.339,0.142 0.32,0.15C0.318,0.149 0.316,0.15 0.313,0.152C0.308,0.153 0.302,0.152 0.293,0.149C0.284,0.146 0.277,0.146 0.272,0.147C0.267,0.144 0.259,0.141 0.248,0.138C0.236,0.135 0.228,0.13 0.223,0.125C0.215,0.117 0.207,0.109 0.199,0.1C0.19,0.089 0.184,0.079 0.181,0.07L0.146,0.07L0.145,0.069C0.143,0.07 0.141,0.07 0.139,0.067C0.135,0.063 0.133,0.061 0.133,0.061L0.134,0.055C0.139,0.053 0.147,0.051 0.158,0.048L0.158,0.024C0.153,0.025 0.148,0.024 0.143,0.021C0.138,0.018 0.135,0.015 0.135,0.012C0.135,0.009 0.14,0.006 0.149,0.002C0.15,0.003 0.15,-0.005 0.15,-0.023C0.15,-0.033 0.147,-0.041 0.142,-0.046C0.129,-0.072 0.117,-0.087 0.105,-0.09C0.09,-0.093 0.08,-0.099 0.074,-0.107C0.073,-0.111 0.069,-0.117 0.063,-0.126C0.057,-0.135 0.054,-0.142 0.054,-0.148C0.054,-0.153 0.056,-0.159 0.06,-0.166C0.071,-0.184 0.086,-0.193 0.103,-0.193C0.116,-0.193 0.127,-0.188 0.136,-0.179C0.145,-0.17 0.15,-0.158 0.15,-0.144C0.15,-0.139 0.149,-0.135 0.148,-0.13C0.145,-0.129 0.144,-0.126 0.145,-0.122C0.142,-0.119 0.137,-0.115 0.13,-0.108C0.137,-0.103 0.144,-0.096 0.149,-0.089C0.154,-0.081 0.16,-0.077 0.165,-0.077C0.171,-0.077 0.18,-0.079 0.192,-0.083C0.196,-0.084 0.2,-0.088 0.205,-0.093C0.203,-0.101 0.197,-0.11 0.186,-0.119C0.175,-0.128 0.168,-0.136 0.166,-0.142C0.163,-0.152 0.161,-0.161 0.161,-0.169C0.161,-0.184 0.166,-0.196 0.177,-0.205C0.187,-0.213 0.199,-0.217 0.214,-0.217C0.237,-0.217 0.254,-0.208 0.263,-0.19C0.269,-0.178 0.272,-0.168 0.272,-0.159C0.272,-0.144 0.262,-0.131 0.243,-0.119C0.239,-0.12 0.237,-0.118 0.236,-0.113C0.231,-0.109 0.228,-0.102 0.228,-0.093C0.228,-0.076 0.233,-0.064 0.243,-0.058C0.254,-0.056 0.267,-0.059 0.28,-0.068C0.293,-0.076 0.299,-0.086 0.299,-0.097C0.299,-0.099 0.299,-0.101 0.298,-0.104C0.292,-0.111 0.289,-0.12 0.289,-0.131C0.289,-0.148 0.295,-0.159 0.308,-0.163C0.313,-0.171 0.322,-0.175 0.335,-0.174C0.364,-0.172 0.378,-0.156 0.378,-0.126C0.378,-0.101 0.368,-0.089 0.347,-0.09C0.345,-0.087 0.341,-0.085 0.334,-0.085C0.327,-0.084 0.323,-0.083 0.321,-0.082C0.318,-0.08 0.315,-0.076 0.311,-0.069C0.306,-0.062 0.305,-0.058 0.306,-0.056C0.303,-0.053 0.3,-0.048 0.297,-0.04L0.296,-0.04L0.294,-0.037L0.297,-0.036L0.295,-0.031L0.293,-0.032L0.293,-0.024L0.291,-0.027L0.288,-0.022L0.293,-0.02L0.29,-0.018L0.288,-0.017L0.29,-0.013L0.288,-0.006L0.29,0.003L0.289,0.004L0.292,0.007C0.291,0.008 0.291,0.009 0.292,0.011C0.292,0.013 0.292,0.014 0.292,0.015C0.294,0.02 0.298,0.025 0.305,0.032C0.308,0.038 0.311,0.042 0.315,0.044L0.323,0.044C0.323,0.045 0.322,0.041 0.321,0.033C0.321,0.028 0.323,0.025 0.326,0.024C0.329,0.023 0.332,0.023 0.335,0.026C0.338,0.029 0.34,0.03 0.341,0.03C0.343,0.03 0.345,0.029 0.346,0.027C0.351,0.022 0.366,-0.016 0.391,-0.087C0.398,-0.094 0.405,-0.102 0.413,-0.111C0.42,-0.119 0.428,-0.124 0.437,-0.127C0.443,-0.132 0.455,-0.136 0.473,-0.138L0.475,-0.14L0.483,-0.137L0.485,-0.14L0.485,-0.138L0.491,-0.138L0.49,-0.137L0.495,-0.135L0.496,-0.136L0.497,-0.134L0.504,-0.133L0.503,-0.132C0.506,-0.131 0.509,-0.128 0.512,-0.125L0.513,-0.125L0.512,-0.124C0.519,-0.117 0.526,-0.102 0.532,-0.081C0.535,-0.078 0.536,-0.075 0.535,-0.072L0.537,-0.072L0.536,-0.068C0.539,-0.065 0.54,-0.062 0.538,-0.06L0.538,-0.057C0.538,-0.054 0.54,-0.051 0.544,-0.048L0.544,-0.047L0.54,-0.047C0.541,-0.044 0.543,-0.042 0.546,-0.041L0.543,-0.039L0.545,-0.035L0.545,-0.033L0.547,-0.033L0.545,-0.031C0.546,-0.029 0.548,-0.027 0.551,-0.026L0.546,-0.023L0.548,-0.022L0.549,-0.023L0.551,-0.018L0.55,-0.016L0.552,-0.016L0.55,-0.015L0.552,-0.011L0.55,-0.01C0.551,-0.009 0.552,-0.009 0.553,-0.008L0.552,-0.007C0.553,-0.006 0.554,-0.006 0.555,-0.005L0.554,-0.004C0.563,0.009 0.569,0.018 0.574,0.024C0.583,0.035 0.592,0.041 0.6,0.044L0.602,0.037L0.613,0.035C0.614,0.032 0.616,0.028 0.619,0.024L0.619,0.021L0.622,0.013L0.624,0.013C0.623,0.009 0.624,0.006 0.627,0.005C0.625,0 0.622,-0.006 0.617,-0.011L0.618,-0.011L0.616,-0.02L0.624,-0.023L0.633,-0.02C0.635,-0.03 0.639,-0.045 0.646,-0.066C0.652,-0.077 0.655,-0.085 0.654,-0.088C0.659,-0.101 0.669,-0.109 0.686,-0.112C0.707,-0.115 0.733,-0.087 0.762,-0.028C0.767,-0.017 0.776,-0.004 0.788,0.013C0.789,0.012 0.79,0.009 0.791,0.004C0.792,-0.002 0.793,-0.005 0.795,-0.005C0.797,-0.004 0.799,-0.004 0.8,-0.003L0.807,0.002C0.814,-0.008 0.818,-0.028 0.82,-0.058C0.823,-0.086 0.827,-0.104 0.832,-0.112L0.84,-0.113C0.847,-0.11 0.852,-0.096 0.855,-0.072C0.856,-0.055 0.856,-0.038 0.857,-0.021C0.858,-0.012 0.858,-0.002 0.856,0.009C0.853,0.026 0.852,0.035 0.852,0.038ZM0.827,0.015C0.825,0.022 0.82,0.028 0.812,0.031C0.812,0.037 0.813,0.046 0.814,0.058L0.819,0.052C0.819,0.049 0.821,0.043 0.824,0.034C0.826,0.027 0.827,0.02 0.827,0.015ZM0.734,-0.018L0.736,-0.02C0.733,-0.025 0.728,-0.032 0.721,-0.043C0.72,-0.043 0.72,-0.043 0.719,-0.042C0.718,-0.042 0.717,-0.043 0.719,-0.045C0.72,-0.046 0.718,-0.049 0.714,-0.052L0.714,-0.058C0.713,-0.057 0.711,-0.057 0.71,-0.058C0.713,-0.06 0.713,-0.062 0.708,-0.065L0.709,-0.065C0.707,-0.068 0.704,-0.073 0.699,-0.08C0.7,-0.076 0.701,-0.07 0.702,-0.061C0.702,-0.06 0.703,-0.058 0.704,-0.056C0.705,-0.045 0.706,-0.036 0.707,-0.03C0.706,-0.029 0.706,-0.029 0.707,-0.028L0.707,-0.023L0.71,-0.018C0.711,-0.013 0.713,-0.008 0.716,-0.005C0.723,0 0.729,0.008 0.733,0.02C0.734,0.016 0.736,0.012 0.739,0.007C0.742,0.002 0.743,-0.001 0.743,-0.004C0.743,-0.008 0.74,-0.013 0.734,-0.018ZM0.791,0.074C0.788,0.062 0.787,0.049 0.787,0.035C0.78,0.032 0.771,0.028 0.76,0.023C0.759,0.027 0.756,0.033 0.753,0.042L0.754,0.042C0.751,0.045 0.75,0.049 0.75,0.055C0.759,0.067 0.772,0.073 0.791,0.074ZM0.688,0.004C0.683,-0.015 0.679,-0.039 0.676,-0.07L0.674,-0.071L0.674,-0.069C0.666,-0.058 0.66,-0.035 0.656,-0.001C0.663,0.006 0.672,0.015 0.681,0.028L0.681,0.029L0.685,0.034C0.684,0.027 0.685,0.017 0.688,0.004ZM0.681,0.044L0.68,0.044L0.681,0.046L0.681,0.044ZM0.679,0.047L0.676,0.047L0.676,0.046L0.673,0.049L0.672,0.047C0.667,0.048 0.662,0.046 0.658,0.041C0.653,0.036 0.649,0.032 0.645,0.028C0.642,0.034 0.64,0.04 0.637,0.046C0.635,0.051 0.635,0.057 0.637,0.064L0.638,0.063L0.642,0.069L0.641,0.069L0.644,0.075L0.642,0.075L0.645,0.076L0.645,0.077L0.648,0.083L0.646,0.085L0.65,0.09L0.649,0.091C0.648,0.09 0.647,0.09 0.648,0.09L0.649,0.092C0.655,0.087 0.665,0.072 0.679,0.047ZM0.514,-0.028C0.513,-0.044 0.511,-0.06 0.509,-0.076C0.506,-0.097 0.498,-0.109 0.487,-0.112C0.479,-0.113 0.474,-0.113 0.472,-0.112C0.473,-0.109 0.474,-0.09 0.475,-0.057C0.476,-0.032 0.48,-0.015 0.487,-0.007C0.498,-0.017 0.507,-0.024 0.514,-0.028ZM0.634,0.105C0.633,0.104 0.629,0.096 0.62,0.082C0.614,0.071 0.61,0.066 0.607,0.066L0.603,0.071L0.602,0.07L0.602,0.069L0.589,0.069L0.589,0.07L0.582,0.068L0.58,0.07C0.576,0.08 0.57,0.095 0.563,0.115C0.598,0.117 0.621,0.114 0.634,0.105ZM0.454,-0.028C0.452,-0.039 0.451,-0.064 0.452,-0.105C0.448,-0.103 0.433,-0.091 0.407,-0.068L0.407,-0.06C0.416,-0.052 0.429,-0.039 0.446,-0.021L0.454,-0.028ZM0.524,0.029C0.529,0.027 0.532,0.024 0.532,0.021C0.532,0.018 0.53,0.015 0.527,0.01C0.523,0.005 0.521,0.001 0.521,-0.002C0.513,0.008 0.503,0.016 0.491,0.021C0.491,0.022 0.494,0.034 0.5,0.057C0.511,0.046 0.519,0.036 0.524,0.029ZM0.354,-0.121C0.356,-0.127 0.357,-0.132 0.357,-0.136C0.357,-0.148 0.351,-0.154 0.339,-0.154C0.32,-0.154 0.31,-0.146 0.31,-0.13C0.31,-0.122 0.315,-0.114 0.324,-0.106L0.335,-0.107C0.33,-0.112 0.327,-0.119 0.327,-0.126C0.327,-0.131 0.33,-0.134 0.335,-0.135C0.339,-0.134 0.343,-0.132 0.348,-0.13C0.352,-0.128 0.354,-0.125 0.354,-0.121ZM0.559,0.059C0.55,0.053 0.544,0.047 0.54,0.041C0.532,0.05 0.522,0.063 0.509,0.082C0.515,0.089 0.526,0.098 0.542,0.107C0.545,0.096 0.55,0.08 0.559,0.059ZM0.434,0L0.427,0C0.42,-0.007 0.411,-0.017 0.398,-0.032C0.398,-0.03 0.395,-0.023 0.389,-0.012C0.39,-0.009 0.39,-0.007 0.387,-0.005L0.388,0.005C0.395,0.011 0.406,0.019 0.42,0.03C0.422,0.025 0.426,0.019 0.431,0.01L0.434,0ZM0.245,-0.165C0.245,-0.164 0.244,-0.169 0.243,-0.178C0.233,-0.188 0.224,-0.193 0.217,-0.193C0.215,-0.193 0.207,-0.191 0.194,-0.188L0.189,-0.181C0.185,-0.16 0.189,-0.145 0.201,-0.137C0.206,-0.136 0.21,-0.137 0.214,-0.14C0.215,-0.144 0.214,-0.147 0.213,-0.149C0.211,-0.151 0.21,-0.153 0.21,-0.154C0.21,-0.157 0.213,-0.162 0.219,-0.17L0.231,-0.17C0.235,-0.17 0.24,-0.168 0.245,-0.165ZM0.406,0.055C0.4,0.05 0.391,0.042 0.379,0.032C0.374,0.039 0.367,0.048 0.357,0.06C0.364,0.086 0.367,0.099 0.367,0.1C0.368,0.099 0.371,0.097 0.377,0.094C0.383,0.088 0.389,0.082 0.395,0.075C0.401,0.068 0.405,0.062 0.406,0.055ZM0.119,-0.148C0.119,-0.161 0.117,-0.168 0.113,-0.17C0.107,-0.169 0.101,-0.169 0.094,-0.169C0.083,-0.16 0.077,-0.151 0.077,-0.144C0.077,-0.141 0.079,-0.137 0.083,-0.133C0.086,-0.129 0.089,-0.127 0.092,-0.127C0.094,-0.127 0.095,-0.13 0.095,-0.135C0.095,-0.14 0.096,-0.143 0.099,-0.144C0.1,-0.148 0.103,-0.15 0.108,-0.149C0.12,-0.149 0.124,-0.149 0.119,-0.148ZM0.346,0.11C0.345,0.101 0.342,0.089 0.336,0.075C0.327,0.078 0.318,0.078 0.311,0.075C0.303,0.072 0.293,0.064 0.281,0.052C0.271,0.036 0.266,0.014 0.266,-0.013C0.266,-0.023 0.267,-0.031 0.27,-0.037C0.266,-0.036 0.262,-0.035 0.257,-0.035C0.234,-0.035 0.219,-0.046 0.212,-0.068C0.206,-0.063 0.19,-0.059 0.164,-0.055C0.169,-0.035 0.171,-0.025 0.17,-0.024L0.168,-0.026L0.171,-0.022L0.171,-0.021C0.169,-0.022 0.169,-0.022 0.171,-0.022L0.173,-0.02L0.169,-0.018L0.169,-0.014L0.173,-0.011L0.168,-0.008L0.171,-0.008L0.168,-0.006L0.173,-0.002C0.189,-0.001 0.205,-0.001 0.222,-0.001C0.241,0 0.256,0.006 0.266,0.015C0.265,0.018 0.266,0.022 0.267,0.027L0.263,0.032C0.262,0.041 0.264,0.046 0.268,0.047L0.266,0.05L0.269,0.057C0.26,0.058 0.256,0.059 0.255,0.059L0.255,0.06L0.25,0.057L0.245,0.061C0.236,0.061 0.231,0.061 0.23,0.06L0.23,0.062L0.226,0.06C0.224,0.064 0.22,0.066 0.213,0.066C0.206,0.065 0.202,0.065 0.2,0.066C0.223,0.093 0.239,0.108 0.25,0.109L0.25,0.11L0.253,0.114L0.253,0.112L0.258,0.114L0.257,0.116L0.258,0.116C0.267,0.12 0.279,0.122 0.293,0.122C0.314,0.122 0.332,0.118 0.346,0.11ZM0.24,0.038C0.241,0.035 0.239,0.03 0.236,0.024L0.231,0.025L0.23,0.022C0.227,0.023 0.224,0.025 0.219,0.027L0.22,0.04L0.24,0.038ZM0.197,0.026C0.193,0.026 0.187,0.025 0.179,0.024C0.18,0.029 0.181,0.035 0.182,0.044L0.196,0.041C0.196,0.038 0.196,0.033 0.197,0.026Z" style="fill-rule:nonzero;"/>
            </g>
        </g>
    </g>
</svg>
