<?xml version="1.0" encoding="UTF-8" standalone="no"?>
<!DOCTYPE svg PUBLIC "-//W3C//DTD SVG 1.1//EN" "http://www.w3.org/Graphics/SVG/1.1/DTD/svg11.dtd">
<svg width="164px" height="35px" version="1.1" xmlns="http://www.w3.org/2000/svg" xmlns:xlink="http://www.w3.org/1999/xlink" xml:space="preserve" xmlns:serif="http://www.serif.com/" style="fill-rule:evenodd;clip-rule:evenodd;stroke-linejoin:round;stroke-miterlimit:2;">
    <g transform="matrix(1,0,0,1,-145.882,-387.801)">
        <g transform="matrix(1.34374,0,0,1.67222,-1425.89,9.14673)">
            <g transform="matrix(89.3028,0,0,71.7609,1168.53,235.486)">
                <path d="M1.379,0.036L1.375,0.042L1.372,0.044L1.371,0.043C1.364,0.056 1.354,0.063 1.341,0.063C1.331,0.063 1.318,0.058 1.302,0.049C1.291,0.041 1.28,0.033 1.269,0.026C1.268,0.025 1.267,0.025 1.267,0.024C1.261,0.022 1.255,0.02 1.25,0.018C1.243,0.016 1.237,0.016 1.232,0.018C1.215,0.018 1.201,0.024 1.19,0.035L1.185,0.037C1.185,0.039 1.184,0.041 1.182,0.042C1.18,0.043 1.179,0.045 1.179,0.047C1.16,0.05 1.132,0.056 1.097,0.066C1.09,0.063 1.087,0.064 1.087,0.069L1.086,0.068C1.085,0.068 1.085,0.068 1.085,0.069L1.084,0.068L1.08,0.071C1.079,0.072 1.078,0.072 1.077,0.071C1.068,0.073 1.059,0.076 1.048,0.08C1.045,0.08 1.043,0.083 1.043,0.088C1.042,0.096 1.042,0.1 1.042,0.101C1.041,0.106 1.04,0.11 1.039,0.115C1.038,0.12 1.04,0.123 1.046,0.124L1.042,0.133C1.036,0.134 1.031,0.137 1.028,0.141C1.018,0.14 1.003,0.14 0.984,0.139C0.98,0.137 0.979,0.131 0.98,0.122C0.983,0.118 0.993,0.115 1.01,0.114L1.012,0.112C1.014,0.105 1.016,0.095 1.017,0.081C1.006,0.079 0.99,0.074 0.97,0.067C0.95,0.06 0.935,0.055 0.925,0.052C0.903,0.058 0.881,0.067 0.86,0.079C0.863,0.091 0.863,0.106 0.86,0.124C0.864,0.127 0.865,0.13 0.863,0.134C0.859,0.135 0.854,0.139 0.847,0.146C0.837,0.144 0.822,0.143 0.801,0.142C0.796,0.138 0.796,0.13 0.8,0.117C0.805,0.115 0.811,0.114 0.818,0.115C0.831,0.116 0.837,0.117 0.837,0.117C0.84,0.108 0.84,0.098 0.838,0.089C0.831,0.09 0.819,0.091 0.802,0.094C0.785,0.096 0.771,0.097 0.761,0.096L0.758,0.128L0.762,0.131C0.762,0.134 0.76,0.138 0.755,0.141C0.75,0.143 0.748,0.146 0.747,0.148C0.744,0.149 0.739,0.148 0.733,0.146C0.722,0.147 0.71,0.146 0.696,0.144C0.693,0.141 0.692,0.135 0.693,0.128C0.697,0.123 0.704,0.121 0.713,0.12C0.721,0.12 0.729,0.12 0.736,0.121C0.737,0.118 0.737,0.109 0.738,0.092C0.719,0.083 0.687,0.065 0.643,0.039L0.62,0.044C0.593,0.059 0.56,0.078 0.523,0.099C0.52,0.1 0.515,0.101 0.509,0.104C0.509,0.107 0.51,0.113 0.511,0.121C0.512,0.128 0.513,0.134 0.513,0.138C0.514,0.143 0.513,0.147 0.509,0.15C0.505,0.153 0.501,0.157 0.498,0.16C0.495,0.161 0.492,0.159 0.49,0.155C0.481,0.156 0.467,0.156 0.449,0.156C0.445,0.153 0.443,0.149 0.444,0.142C0.445,0.133 0.46,0.13 0.49,0.132L0.491,0.131L0.486,0.108C0.481,0.107 0.466,0.1 0.443,0.09C0.419,0.079 0.404,0.073 0.397,0.073C0.395,0.073 0.393,0.074 0.392,0.076C0.379,0.085 0.369,0.091 0.362,0.095C0.351,0.101 0.34,0.105 0.329,0.108C0.33,0.118 0.33,0.128 0.33,0.137C0.329,0.15 0.325,0.158 0.316,0.159C0.313,0.158 0.309,0.158 0.304,0.159C0.297,0.16 0.288,0.16 0.276,0.16C0.272,0.157 0.271,0.151 0.272,0.142C0.279,0.137 0.29,0.134 0.307,0.135C0.307,0.13 0.307,0.124 0.308,0.115C0.305,0.114 0.3,0.113 0.294,0.112C0.286,0.108 0.274,0.102 0.259,0.094L0.252,0.095L0.252,0.099C0.183,0.109 0.145,0.114 0.138,0.113C0.139,0.112 0.139,0.112 0.138,0.112C0.136,0.115 0.122,0.117 0.097,0.119C0.065,0.121 0.049,0.122 0.049,0.122C0.046,0.121 0.043,0.12 0.039,0.121C0.033,0.12 0.024,0.116 0.013,0.111C0.014,0.106 0.017,0.102 0.023,0.1C0.032,0.097 0.038,0.095 0.039,0.094C0.053,0.091 0.075,0.087 0.105,0.082C0.112,0.082 0.122,0.081 0.135,0.079C0.124,0.067 0.118,0.051 0.118,0.031C0.118,0.016 0.122,0.001 0.129,-0.013C0.13,-0.029 0.137,-0.042 0.153,-0.053C0.168,-0.063 0.185,-0.068 0.204,-0.068C0.245,-0.068 0.27,-0.049 0.279,-0.01C0.282,-0.008 0.286,-0.005 0.291,-0.002C0.296,0.001 0.299,0.003 0.302,0.003C0.307,0.003 0.313,-0.001 0.322,-0.009C0.321,-0.01 0.319,-0.014 0.316,-0.021C0.313,-0.027 0.311,-0.032 0.311,-0.035C0.311,-0.041 0.314,-0.044 0.32,-0.044C0.327,-0.044 0.334,-0.037 0.341,-0.023C0.344,-0.022 0.347,-0.023 0.35,-0.027C0.353,-0.029 0.355,-0.031 0.356,-0.031C0.354,-0.035 0.352,-0.05 0.349,-0.077C0.351,-0.082 0.354,-0.084 0.359,-0.083C0.368,-0.078 0.375,-0.067 0.379,-0.05L0.395,-0.051C0.398,-0.061 0.4,-0.066 0.4,-0.066C0.402,-0.071 0.405,-0.075 0.41,-0.076C0.415,-0.073 0.418,-0.066 0.418,-0.054C0.418,-0.041 0.422,-0.034 0.429,-0.031C0.432,-0.039 0.434,-0.047 0.437,-0.054C0.441,-0.065 0.445,-0.071 0.448,-0.071C0.451,-0.071 0.454,-0.068 0.457,-0.063C0.46,-0.057 0.46,-0.048 0.458,-0.037C0.456,-0.025 0.456,-0.016 0.457,-0.011C0.461,-0.008 0.466,-0.005 0.471,-0.004C0.47,-0.011 0.47,-0.018 0.47,-0.025C0.471,-0.033 0.474,-0.039 0.479,-0.042C0.48,-0.042 0.484,-0.038 0.491,-0.03C0.492,-0.029 0.493,-0.019 0.496,-0.002C0.505,-0.003 0.512,-0.006 0.518,-0.01C0.517,-0.017 0.516,-0.025 0.515,-0.032C0.515,-0.041 0.517,-0.047 0.522,-0.051C0.527,-0.049 0.531,-0.045 0.534,-0.039C0.536,-0.032 0.538,-0.026 0.54,-0.02C0.546,-0.022 0.553,-0.025 0.562,-0.03C0.557,-0.049 0.557,-0.064 0.561,-0.075L0.568,-0.078C0.574,-0.075 0.578,-0.069 0.579,-0.062C0.58,-0.055 0.582,-0.047 0.583,-0.04C0.588,-0.042 0.597,-0.045 0.608,-0.048C0.608,-0.055 0.608,-0.061 0.61,-0.068C0.611,-0.075 0.614,-0.079 0.619,-0.082C0.624,-0.082 0.628,-0.078 0.629,-0.07C0.63,-0.065 0.631,-0.059 0.632,-0.054C0.637,-0.052 0.643,-0.053 0.65,-0.056C0.653,-0.063 0.656,-0.069 0.659,-0.075C0.662,-0.081 0.666,-0.086 0.671,-0.089C0.672,-0.089 0.675,-0.086 0.68,-0.079C0.681,-0.073 0.679,-0.061 0.674,-0.043C0.674,-0.042 0.679,-0.04 0.688,-0.035C0.691,-0.042 0.696,-0.052 0.705,-0.064C0.715,-0.067 0.72,-0.064 0.72,-0.053C0.72,-0.041 0.717,-0.03 0.71,-0.021C0.716,-0.017 0.725,-0.011 0.737,-0.002L0.736,-0.001C0.755,0.011 0.768,0.016 0.775,0.014C0.801,0.005 0.827,-0.003 0.854,-0.011C0.885,-0.02 0.911,-0.024 0.934,-0.024C0.943,-0.024 0.951,-0.024 0.96,-0.023C0.961,-0.022 0.963,-0.021 0.965,-0.021C0.965,-0.02 0.967,-0.019 0.972,-0.017C0.976,-0.014 0.982,-0.01 0.99,-0.004C1.011,0.01 1.032,0.019 1.055,0.022C1.056,0.023 1.058,0.022 1.06,0.021C1.072,0.022 1.086,0.02 1.102,0.017C1.124,0.012 1.138,0.009 1.144,0.009C1.149,0.005 1.163,0 1.186,-0.005C1.209,-0.01 1.224,-0.012 1.233,-0.013C1.235,-0.012 1.237,-0.012 1.238,-0.011C1.243,-0.012 1.251,-0.009 1.262,-0.004L1.263,-0.006L1.27,-0.003L1.27,-0.002C1.299,0.01 1.317,0.023 1.324,0.037C1.329,0.042 1.335,0.045 1.34,0.045C1.348,0.045 1.359,0.037 1.374,0.021C1.374,0.021 1.372,0.016 1.369,0.006C1.376,0.007 1.379,0.012 1.378,0.021C1.377,0.03 1.377,0.035 1.379,0.036ZM0.208,-0.091L0.207,-0.086L0.202,-0.086L0.196,-0.091L0.194,-0.088L0.195,-0.087C0.184,-0.09 0.178,-0.099 0.178,-0.112C0.178,-0.118 0.181,-0.121 0.188,-0.121C0.191,-0.121 0.194,-0.121 0.198,-0.12C0.207,-0.107 0.212,-0.098 0.212,-0.095C0.212,-0.092 0.211,-0.091 0.208,-0.091ZM0.167,-0.083L0.165,-0.077C0.164,-0.078 0.162,-0.079 0.16,-0.078L0.163,-0.071L0.152,-0.075C0.152,-0.071 0.15,-0.07 0.145,-0.073C0.132,-0.081 0.12,-0.095 0.11,-0.116L0.116,-0.126C0.131,-0.127 0.148,-0.113 0.167,-0.083ZM0.127,-0.059C0.126,-0.059 0.126,-0.057 0.125,-0.054C0.124,-0.05 0.122,-0.048 0.119,-0.049C0.117,-0.046 0.114,-0.045 0.109,-0.047C0.093,-0.061 0.086,-0.071 0.087,-0.078C0.089,-0.081 0.092,-0.082 0.095,-0.082C0.105,-0.082 0.116,-0.074 0.127,-0.059ZM1.089,0.045L1.082,0.044L1.081,0.047L1.075,0.044L1.069,0.046L1.069,0.044L1.065,0.046L1.064,0.044L1.067,0.042L1.062,0.043C1.061,0.042 1.061,0.043 1.06,0.044L1.057,0.042L1.056,0.044L1.054,0.041L1.043,0.042L1.042,0.041L1.037,0.04C1.038,0.041 1.038,0.041 1.037,0.042C1.036,0.04 1.034,0.039 1.03,0.038L1.031,0.037L1.027,0.038C1.028,0.042 1.027,0.048 1.026,0.056C1.049,0.058 1.07,0.054 1.089,0.045ZM0.948,-0.023C0.947,-0.024 0.947,-0.025 0.947,-0.025L0.948,-0.023ZM1.008,0.035C1.006,0.034 1.005,0.033 1.005,0.032L0.998,0.032L0.999,0.029L0.992,0.029L0.995,0.027C0.994,0.028 0.992,0.028 0.99,0.027C0.987,0.026 0.986,0.025 0.985,0.026C0.985,0.027 0.985,0.03 0.984,0.033C0.982,0.036 0.982,0.039 0.982,0.041C0.993,0.048 1,0.051 1.003,0.05C1.006,0.038 1.008,0.033 1.008,0.035ZM0.959,0.007L0.958,0.007L0.95,0.004L0.948,0.001L0.947,0.002C0.946,0 0.944,-0.001 0.941,-0.001C0.936,0 0.933,0.001 0.934,0.001L0.932,-0.003C0.933,-0.002 0.933,-0.002 0.932,-0.002L0.924,0L0.926,0.001L0.922,0.003L0.924,0.025C0.936,0.026 0.945,0.027 0.95,0.029C0.953,0.03 0.955,0.028 0.958,0.024C0.961,0.02 0.962,0.016 0.962,0.012C0.962,0.009 0.961,0.008 0.959,0.007ZM0.899,0.009L0.889,0.01L0.882,0.01C0.88,0.011 0.879,0.012 0.878,0.013L0.866,0.014L0.865,0.016L0.861,0.017L0.862,0.042C0.864,0.041 0.876,0.036 0.898,0.028C0.898,0.024 0.898,0.018 0.899,0.009ZM0.83,0.007L0.829,0.007L0.828,0.008L0.83,0.007ZM0.812,0.024L0.812,0.021L0.812,0.024ZM0.84,0.052C0.841,0.045 0.841,0.034 0.84,0.019L0.835,0.022L0.835,0.021L0.832,0.02C0.831,0.021 0.831,0.023 0.83,0.024C0.829,0.023 0.827,0.023 0.825,0.023C0.823,0.022 0.822,0.023 0.821,0.026L0.819,0.024L0.813,0.026L0.813,0.027L0.81,0.027C0.81,0.035 0.809,0.047 0.808,0.064C0.817,0.063 0.827,0.059 0.84,0.052ZM0.789,0.028L0.787,0.026L0.787,0.028L0.789,0.028ZM0.788,0.034C0.786,0.034 0.785,0.033 0.784,0.031L0.783,0.034L0.786,0.033C0.787,0.035 0.787,0.035 0.788,0.034ZM0.787,0.039L0.787,0.036L0.786,0.037L0.785,0.036C0.785,0.037 0.786,0.038 0.787,0.039ZM0.779,0.034C0.776,0.035 0.776,0.036 0.778,0.037L0.777,0.036L0.779,0.034ZM0.776,0.036C0.775,0.037 0.774,0.037 0.773,0.038L0.774,0.038L0.774,0.037L0.776,0.036ZM0.722,0.004L0.72,0.003L0.722,0.005L0.722,0.004ZM0.755,0.039L0.753,0.037C0.752,0.038 0.753,0.039 0.755,0.039ZM0.787,0.04L0.78,0.041L0.779,0.042L0.778,0.041C0.774,0.042 0.764,0.042 0.748,0.039C0.744,0.046 0.741,0.054 0.739,0.063C0.754,0.067 0.769,0.068 0.785,0.067L0.787,0.04ZM0.73,0.025C0.725,0.02 0.716,0.015 0.704,0.008L0.698,0.021C0.698,0.021 0.696,0.026 0.693,0.035C0.698,0.038 0.706,0.044 0.717,0.051C0.72,0.045 0.724,0.036 0.73,0.025ZM0.684,-0.004C0.678,-0.008 0.669,-0.013 0.656,-0.019L0.653,0.004C0.652,0.011 0.653,0.016 0.658,0.017C0.665,0.019 0.67,0.021 0.672,0.024C0.673,0.021 0.677,0.012 0.684,-0.004ZM0.633,-0.021C0.613,-0.019 0.603,-0.015 0.603,-0.009C0.603,-0.008 0.605,0.001 0.61,0.017C0.614,0.016 0.62,0.014 0.629,0.012C0.63,0.005 0.632,-0.006 0.633,-0.021ZM0.587,0.027C0.587,0.027 0.585,0.017 0.581,-0.003C0.57,0.002 0.56,0.008 0.551,0.013L0.562,0.041C0.567,0.038 0.576,0.033 0.587,0.027ZM0.542,0.052C0.54,0.043 0.536,0.033 0.531,0.022C0.525,0.026 0.515,0.03 0.501,0.035C0.501,0.043 0.502,0.055 0.503,0.071C0.512,0.068 0.525,0.061 0.542,0.052ZM0.482,0.076L0.481,0.035C0.476,0.034 0.469,0.031 0.459,0.028C0.455,0.053 0.453,0.065 0.453,0.065C0.468,0.072 0.478,0.076 0.482,0.076ZM0.437,0.015C0.432,0.011 0.424,0.005 0.413,-0.003L0.413,0.044L0.429,0.052L0.437,0.015ZM0.392,-0.011C0.383,-0.006 0.375,0 0.366,0.007C0.369,0.016 0.372,0.03 0.377,0.048C0.38,0.047 0.384,0.044 0.39,0.041C0.39,0.041 0.391,0.024 0.392,-0.011ZM0.354,0.064C0.352,0.057 0.349,0.044 0.344,0.025C0.339,0.027 0.333,0.031 0.325,0.037C0.326,0.046 0.326,0.06 0.327,0.078C0.338,0.075 0.347,0.071 0.354,0.064ZM0.306,0.082C0.304,0.069 0.303,0.055 0.302,0.041C0.303,0.041 0.304,0.04 0.304,0.039L0.285,0.032C0.281,0.047 0.277,0.058 0.272,0.066C0.274,0.069 0.285,0.074 0.306,0.082ZM0.181,-0.026C0.18,-0.025 0.173,-0.021 0.158,-0.014C0.153,-0.012 0.151,-0.008 0.15,-0.003C0.149,0.003 0.149,0.009 0.149,0.015C0.148,0.021 0.148,0.026 0.148,0.031C0.148,0.062 0.159,0.077 0.182,0.077C0.194,0.077 0.207,0.073 0.221,0.064C0.235,0.055 0.244,0.047 0.247,0.04C0.252,0.028 0.254,0.016 0.254,0.004C0.254,-0.013 0.249,-0.025 0.238,-0.031C0.233,-0.034 0.227,-0.036 0.221,-0.036C0.22,-0.036 0.206,-0.033 0.181,-0.026ZM0.25,0.097L0.247,0.096L0.245,0.099C0.246,0.098 0.247,0.098 0.248,0.098C0.249,0.098 0.249,0.098 0.25,0.097ZM0.241,0.099C0.24,0.099 0.24,0.1 0.239,0.101L0.239,0.1C0.241,0.1 0.242,0.1 0.241,0.099ZM0.222,0.03C0.219,0.035 0.216,0.039 0.213,0.044C0.21,0.048 0.205,0.05 0.199,0.05C0.193,0.05 0.187,0.047 0.182,0.042C0.176,0.037 0.173,0.031 0.173,0.025C0.173,0.023 0.173,0.021 0.174,0.02L0.185,0.018L0.191,0.021L0.192,0.02L0.186,0.012C0.187,0.007 0.191,0 0.197,-0.007C0.208,-0.006 0.216,-0.002 0.219,0.005C0.22,0.009 0.221,0.017 0.222,0.03Z" style="fill-rule:nonzero;"/>
            </g>
        </g>
    </g>
</svg>
