<?xml version="1.0" encoding="UTF-8" standalone="no"?>
<!DOCTYPE svg PUBLIC "-//W3C//DTD SVG 1.1//EN" "http://www.w3.org/Graphics/SVG/1.1/DTD/svg11.dtd">
<svg width="40px" height="42px" version="1.1" xmlns="http://www.w3.org/2000/svg" xmlns:xlink="http://www.w3.org/1999/xlink" xml:space="preserve" xmlns:serif="http://www.serif.com/" style="fill-rule:evenodd;clip-rule:evenodd;stroke-linejoin:round;stroke-miterlimit:2;">
    <g transform="matrix(1,0,0,1,-634.883,-459.212)">
        <g id="X" transform="matrix(4.8161,0,0,4.8161,661.775,484.908)">
            <path d="M0,-2.092C-0.227,-2.142 -0.262,-2.381 -0.603,-2.317C-0.445,-2.764 0.006,-2.916 0.227,-3.299C0.56,-3.568 0.862,-3.87 1.131,-4.203C1.491,-4.136 1.532,-3.75 1.659,-3.449C1.301,-3.306 1.036,-2.88 0.604,-3.223C0.333,-3.176 0.477,-2.715 0.529,-2.544C0.295,-2.45 0.124,-2.295 0,-2.092M-0.225,0.999C-0.51,0.779 -1.071,0.295 -0.754,-0.056C-0.495,0.139 -0.429,0.525 -0.15,0.697C-0.209,0.765 -0.231,0.868 -0.225,0.999M-0.905,-2.092C-0.912,-2.183 -0.796,-2.139 -0.905,-2.092C-0.832,-1.778 -1.13,-2.076 -0.905,-2.092M0.529,1.678C0.681,1.802 0.829,1.93 0.829,2.206C0.522,2.128 0.433,1.997 0.529,1.678M-1.734,-1.187C-1.665,-1.439 -1.565,-1.252 -1.432,-1.187C-1.444,-1 -1.687,-1.165 -1.734,-1.187M-2.789,-2.695C-3.118,-2.618 -3.135,-2.851 -3.316,-2.921L-3.316,-3.601C-3.23,-3.613 -3.182,-3.583 -3.166,-3.524C-2.867,-3.044 -2.53,-2.603 -2.186,-2.167C-2.437,-1.995 -2.592,-2.563 -2.789,-2.695M-3.241,0.472C-3.146,0.215 -2.823,0.186 -2.789,-0.133C-2.555,-0.115 -2.553,0.136 -2.487,0.321C-2.689,0.52 -2.954,0.753 -3.241,0.472M-3.996,-3.751C-4.488,-3.82 -4.006,-4.256 -3.921,-4.429C-3.742,-4.295 -4.139,-4.1 -3.996,-3.751M-3.619,1.074C-3.585,0.965 -3.552,1.083 -3.468,1.074C-3.486,1.17 -3.617,1.151 -3.619,1.074M-4.825,1.753C-4.595,1.75 -4.532,1.912 -4.373,1.98C-4.454,2.281 -4.917,2.077 -4.825,1.753M1.282,-2.017C1.6,-2.151 1.812,-2.391 2.036,-2.619C2.369,-2.739 2.646,-2.914 2.715,-3.299C2.777,-3.813 2.391,-3.879 2.338,-4.278C2.094,-4.513 1.914,-4.809 1.734,-5.108C1.476,-5.152 1.383,-5.36 1.056,-5.333C1.055,-5.235 0.924,-5.266 0.905,-5.183C0.659,-5.027 0.491,-4.793 0.302,-4.58C0.069,-4.411 -0.131,-4.209 -0.302,-3.976C-0.561,-3.833 -0.669,-3.54 -0.98,-3.449C-1.003,-3.271 -1.242,-3.309 -1.207,-3.072C-1.487,-3.153 -1.326,-2.789 -1.582,-2.846C-1.902,-3.229 -2.228,-3.608 -2.487,-4.053C-3.023,-4.396 -3.263,-5.036 -3.921,-5.258C-4.077,-5.139 -4.227,-5.014 -4.448,-4.958C-4.613,-4.619 -4.88,-4.383 -5.051,-4.053C-4.909,-3.792 -4.799,-3.501 -4.523,-3.374C-4.433,-3.061 -4.234,-2.858 -3.996,-2.695C-3.644,-2.217 -3.247,-1.786 -2.939,-1.263C-3.37,-0.712 -3.869,-0.231 -4.298,0.321C-4.589,0.53 -4.722,0.9 -5.051,1.074C-5.077,1.551 -5.641,1.488 -5.579,2.055C-5.61,2.437 -5.316,2.494 -5.202,2.733C-4.936,2.844 -4.958,3.243 -4.523,3.185C-3.8,3.031 -3.621,2.328 -3.016,2.055C-2.512,1.653 -2.063,1.198 -1.582,0.774C-1.304,1.248 -0.977,1.675 -0.603,2.055C-0.246,2.477 -0.05,3.06 0.604,3.185C1.112,3.268 1.182,2.91 1.509,2.808C1.89,2.764 2.024,2.469 2.111,2.131C2.07,1.746 1.618,1.769 1.509,1.451C0.989,0.715 0.371,0.077 -0.075,-0.735C0.197,-0.89 0.331,-1.183 0.604,-1.338C0.76,-1.634 1.165,-1.681 1.282,-2.017"/>
        </g>
    </g>
</svg>
